<mxfile host="app.diagrams.net" modified="2023-03-15T16:25:18.942Z" agent="5.0 (Windows NT 10.0; Win64; x64) AppleWebKit/537.36 (KHTML, like Gecko) Chrome/111.0.0.0 Safari/537.36" etag="MpE7Acbj9pxZRLClBtHE" version="21.0.6" type="github">
  <diagram id="R2lEEEUBdFMjLlhIrx00" name="Page-1">
    <mxGraphModel dx="3500" dy="1983" grid="1" gridSize="10" guides="1" tooltips="1" connect="1" arrows="1" fold="1" page="1" pageScale="1" pageWidth="3300" pageHeight="4681" math="0" shadow="0" extFonts="Permanent Marker^https://fonts.googleapis.com/css?family=Permanent+Marker">
      <root>
        <mxCell id="0" />
        <mxCell id="1" parent="0" />
        <mxCell id="LCNr2324bUw4uPDGSLGZ-5" value="About" style="swimlane;fontStyle=2;align=center;verticalAlign=top;childLayout=stackLayout;horizontal=1;startSize=26;horizontalStack=0;resizeParent=1;resizeLast=0;collapsible=1;marginBottom=0;rounded=0;shadow=0;strokeWidth=1;" parent="1" vertex="1">
          <mxGeometry x="1790" y="1790" width="260" height="266" as="geometry">
            <mxRectangle x="230" y="140" width="160" height="26" as="alternateBounds" />
          </mxGeometry>
        </mxCell>
        <mxCell id="LCNr2324bUw4uPDGSLGZ-6" value="-ID : int" style="text;align=left;verticalAlign=top;spacingLeft=4;spacingRight=4;overflow=hidden;rotatable=0;points=[[0,0.5],[1,0.5]];portConstraint=eastwest;" parent="LCNr2324bUw4uPDGSLGZ-5" vertex="1">
          <mxGeometry y="26" width="260" height="26" as="geometry" />
        </mxCell>
        <mxCell id="LCNr2324bUw4uPDGSLGZ-7" value="-Name: nvarchar" style="text;align=left;verticalAlign=top;spacingLeft=4;spacingRight=4;overflow=hidden;rotatable=0;points=[[0,0.5],[1,0.5]];portConstraint=eastwest;rounded=0;shadow=0;html=0;" parent="LCNr2324bUw4uPDGSLGZ-5" vertex="1">
          <mxGeometry y="52" width="260" height="26" as="geometry" />
        </mxCell>
        <mxCell id="LCNr2324bUw4uPDGSLGZ-8" value="-Description: nvarchar" style="text;align=left;verticalAlign=top;spacingLeft=4;spacingRight=4;overflow=hidden;rotatable=0;points=[[0,0.5],[1,0.5]];portConstraint=eastwest;rounded=0;shadow=0;html=0;" parent="LCNr2324bUw4uPDGSLGZ-5" vertex="1">
          <mxGeometry y="78" width="260" height="22" as="geometry" />
        </mxCell>
        <mxCell id="LCNr2324bUw4uPDGSLGZ-38" value="-Facebook: nvarchar" style="text;align=left;verticalAlign=top;spacingLeft=4;spacingRight=4;overflow=hidden;rotatable=0;points=[[0,0.5],[1,0.5]];portConstraint=eastwest;rounded=0;shadow=0;html=0;" parent="LCNr2324bUw4uPDGSLGZ-5" vertex="1">
          <mxGeometry y="100" width="260" height="22" as="geometry" />
        </mxCell>
        <mxCell id="LCNr2324bUw4uPDGSLGZ-39" value="-Zalo : nvarchar" style="text;align=left;verticalAlign=top;spacingLeft=4;spacingRight=4;overflow=hidden;rotatable=0;points=[[0,0.5],[1,0.5]];portConstraint=eastwest;rounded=0;shadow=0;html=0;" parent="LCNr2324bUw4uPDGSLGZ-5" vertex="1">
          <mxGeometry y="122" width="260" height="22" as="geometry" />
        </mxCell>
        <mxCell id="LCNr2324bUw4uPDGSLGZ-40" value="-MetaKeyword: nvarchar" style="text;align=left;verticalAlign=top;spacingLeft=4;spacingRight=4;overflow=hidden;rotatable=0;points=[[0,0.5],[1,0.5]];portConstraint=eastwest;rounded=0;shadow=0;html=0;" parent="LCNr2324bUw4uPDGSLGZ-5" vertex="1">
          <mxGeometry y="144" width="260" height="22" as="geometry" />
        </mxCell>
        <mxCell id="LCNr2324bUw4uPDGSLGZ-41" value="-MetaDescription: nvarchar" style="text;align=left;verticalAlign=top;spacingLeft=4;spacingRight=4;overflow=hidden;rotatable=0;points=[[0,0.5],[1,0.5]];portConstraint=eastwest;rounded=0;shadow=0;html=0;" parent="LCNr2324bUw4uPDGSLGZ-5" vertex="1">
          <mxGeometry y="166" width="260" height="22" as="geometry" />
        </mxCell>
        <mxCell id="LCNr2324bUw4uPDGSLGZ-42" value="-CreateDate : datetime" style="text;align=left;verticalAlign=top;spacingLeft=4;spacingRight=4;overflow=hidden;rotatable=0;points=[[0,0.5],[1,0.5]];portConstraint=eastwest;rounded=0;shadow=0;html=0;" parent="LCNr2324bUw4uPDGSLGZ-5" vertex="1">
          <mxGeometry y="188" width="260" height="22" as="geometry" />
        </mxCell>
        <mxCell id="G7e7qXY8DoMNNicGVx0g-25" value="-UpdateDate: datetime" style="text;align=left;verticalAlign=top;spacingLeft=4;spacingRight=4;overflow=hidden;rotatable=0;points=[[0,0.5],[1,0.5]];portConstraint=eastwest;rounded=0;shadow=0;html=0;" parent="LCNr2324bUw4uPDGSLGZ-5" vertex="1">
          <mxGeometry y="210" width="260" height="22" as="geometry" />
        </mxCell>
        <mxCell id="LCNr2324bUw4uPDGSLGZ-9" value="" style="line;html=1;strokeWidth=1;align=left;verticalAlign=middle;spacingTop=-1;spacingLeft=3;spacingRight=3;rotatable=0;labelPosition=right;points=[];portConstraint=eastwest;" parent="LCNr2324bUw4uPDGSLGZ-5" vertex="1">
          <mxGeometry y="232" width="260" height="8" as="geometry" />
        </mxCell>
        <mxCell id="LCNr2324bUw4uPDGSLGZ-10" value="Purchase Parking Pass" style="text;align=left;verticalAlign=top;spacingLeft=4;spacingRight=4;overflow=hidden;rotatable=0;points=[[0,0.5],[1,0.5]];portConstraint=eastwest;" parent="LCNr2324bUw4uPDGSLGZ-5" vertex="1">
          <mxGeometry y="240" width="260" height="26" as="geometry" />
        </mxCell>
        <mxCell id="LCNr2324bUw4uPDGSLGZ-43" style="edgeStyle=orthogonalEdgeStyle;rounded=0;orthogonalLoop=1;jettySize=auto;html=1;exitX=1;exitY=0.5;exitDx=0;exitDy=0;" parent="LCNr2324bUw4uPDGSLGZ-5" source="LCNr2324bUw4uPDGSLGZ-38" target="LCNr2324bUw4uPDGSLGZ-38" edge="1">
          <mxGeometry relative="1" as="geometry" />
        </mxCell>
        <mxCell id="LCNr2324bUw4uPDGSLGZ-11" value="Brand" style="swimlane;fontStyle=0;align=center;verticalAlign=top;childLayout=stackLayout;horizontal=1;startSize=26;horizontalStack=0;resizeParent=1;resizeLast=0;collapsible=1;marginBottom=0;rounded=0;shadow=0;strokeWidth=1;" parent="1" vertex="1">
          <mxGeometry x="690" y="1032" width="160" height="190" as="geometry">
            <mxRectangle x="130" y="380" width="160" height="26" as="alternateBounds" />
          </mxGeometry>
        </mxCell>
        <mxCell id="LCNr2324bUw4uPDGSLGZ-12" value="-BrandID : uniqueidentifier" style="text;align=left;verticalAlign=top;spacingLeft=4;spacingRight=4;overflow=hidden;rotatable=0;points=[[0,0.5],[1,0.5]];portConstraint=eastwest;fillColor=#f5f5f5;fontColor=#333333;strokeColor=#666666;fontStyle=4" parent="LCNr2324bUw4uPDGSLGZ-11" vertex="1">
          <mxGeometry y="26" width="160" height="26" as="geometry" />
        </mxCell>
        <mxCell id="LCNr2324bUw4uPDGSLGZ-13" value="-Name : nvarchar" style="text;align=left;verticalAlign=top;spacingLeft=4;spacingRight=4;overflow=hidden;rotatable=0;points=[[0,0.5],[1,0.5]];portConstraint=eastwest;rounded=0;shadow=0;html=0;" parent="LCNr2324bUw4uPDGSLGZ-11" vertex="1">
          <mxGeometry y="52" width="160" height="26" as="geometry" />
        </mxCell>
        <mxCell id="LCNr2324bUw4uPDGSLGZ-45" value="-BrandImage : nvarchar" style="text;align=left;verticalAlign=top;spacingLeft=4;spacingRight=4;overflow=hidden;rotatable=0;points=[[0,0.5],[1,0.5]];portConstraint=eastwest;rounded=0;shadow=0;html=0;" parent="LCNr2324bUw4uPDGSLGZ-11" vertex="1">
          <mxGeometry y="78" width="160" height="26" as="geometry" />
        </mxCell>
        <mxCell id="LCNr2324bUw4uPDGSLGZ-46" value="-Description : nvarchar" style="text;align=left;verticalAlign=top;spacingLeft=4;spacingRight=4;overflow=hidden;rotatable=0;points=[[0,0.5],[1,0.5]];portConstraint=eastwest;rounded=0;shadow=0;html=0;" parent="LCNr2324bUw4uPDGSLGZ-11" vertex="1">
          <mxGeometry y="104" width="160" height="26" as="geometry" />
        </mxCell>
        <mxCell id="LCNr2324bUw4uPDGSLGZ-14" value="" style="line;html=1;strokeWidth=1;align=left;verticalAlign=middle;spacingTop=-1;spacingLeft=3;spacingRight=3;rotatable=0;labelPosition=right;points=[];portConstraint=eastwest;" parent="LCNr2324bUw4uPDGSLGZ-11" vertex="1">
          <mxGeometry y="130" width="160" height="8" as="geometry" />
        </mxCell>
        <mxCell id="LCNr2324bUw4uPDGSLGZ-15" value="Is Eligible To Enroll" style="text;align=left;verticalAlign=top;spacingLeft=4;spacingRight=4;overflow=hidden;rotatable=0;points=[[0,0.5],[1,0.5]];portConstraint=eastwest;fontStyle=4" parent="LCNr2324bUw4uPDGSLGZ-11" vertex="1">
          <mxGeometry y="138" width="160" height="26" as="geometry" />
        </mxCell>
        <mxCell id="LCNr2324bUw4uPDGSLGZ-16" value="Get Seminars Taken" style="text;align=left;verticalAlign=top;spacingLeft=4;spacingRight=4;overflow=hidden;rotatable=0;points=[[0,0.5],[1,0.5]];portConstraint=eastwest;" parent="LCNr2324bUw4uPDGSLGZ-11" vertex="1">
          <mxGeometry y="164" width="160" height="26" as="geometry" />
        </mxCell>
        <mxCell id="LCNr2324bUw4uPDGSLGZ-18" value="Contact" style="swimlane;fontStyle=0;align=center;verticalAlign=top;childLayout=stackLayout;horizontal=1;startSize=26;horizontalStack=0;resizeParent=1;resizeLast=0;collapsible=1;marginBottom=0;rounded=0;shadow=0;strokeWidth=1;" parent="1" vertex="1">
          <mxGeometry x="1580" y="1790" width="160" height="190" as="geometry">
            <mxRectangle x="340" y="380" width="170" height="26" as="alternateBounds" />
          </mxGeometry>
        </mxCell>
        <mxCell id="LCNr2324bUw4uPDGSLGZ-19" value="-ContactID: int" style="text;align=left;verticalAlign=top;spacingLeft=4;spacingRight=4;overflow=hidden;rotatable=0;points=[[0,0.5],[1,0.5]];portConstraint=eastwest;" parent="LCNr2324bUw4uPDGSLGZ-18" vertex="1">
          <mxGeometry y="26" width="160" height="26" as="geometry" />
        </mxCell>
        <mxCell id="LCNr2324bUw4uPDGSLGZ-47" value="-Name: nvarchar" style="text;align=left;verticalAlign=top;spacingLeft=4;spacingRight=4;overflow=hidden;rotatable=0;points=[[0,0.5],[1,0.5]];portConstraint=eastwest;" parent="LCNr2324bUw4uPDGSLGZ-18" vertex="1">
          <mxGeometry y="52" width="160" height="26" as="geometry" />
        </mxCell>
        <mxCell id="LCNr2324bUw4uPDGSLGZ-48" value="-Detail: nvarchar" style="text;align=left;verticalAlign=top;spacingLeft=4;spacingRight=4;overflow=hidden;rotatable=0;points=[[0,0.5],[1,0.5]];portConstraint=eastwest;" parent="LCNr2324bUw4uPDGSLGZ-18" vertex="1">
          <mxGeometry y="78" width="160" height="22" as="geometry" />
        </mxCell>
        <mxCell id="G7e7qXY8DoMNNicGVx0g-1" value="-IsStatus: bit" style="text;align=left;verticalAlign=top;spacingLeft=4;spacingRight=4;overflow=hidden;rotatable=0;points=[[0,0.5],[1,0.5]];portConstraint=eastwest;" parent="LCNr2324bUw4uPDGSLGZ-18" vertex="1">
          <mxGeometry y="100" width="160" height="26" as="geometry" />
        </mxCell>
        <mxCell id="LCNr2324bUw4uPDGSLGZ-20" value="" style="line;html=1;strokeWidth=1;align=left;verticalAlign=middle;spacingTop=-1;spacingLeft=3;spacingRight=3;rotatable=0;labelPosition=right;points=[];portConstraint=eastwest;" parent="LCNr2324bUw4uPDGSLGZ-18" vertex="1">
          <mxGeometry y="126" width="160" height="8" as="geometry" />
        </mxCell>
        <mxCell id="LCNr2324bUw4uPDGSLGZ-22" value="Customer" style="swimlane;fontStyle=0;align=center;verticalAlign=top;childLayout=stackLayout;horizontal=1;startSize=26;horizontalStack=0;resizeParent=1;resizeLast=0;collapsible=1;marginBottom=0;rounded=0;shadow=0;strokeWidth=1;" parent="1" vertex="1">
          <mxGeometry x="800" y="1380" width="180" height="226" as="geometry">
            <mxRectangle x="550" y="140" width="160" height="26" as="alternateBounds" />
          </mxGeometry>
        </mxCell>
        <mxCell id="LCNr2324bUw4uPDGSLGZ-23" value="-CustomerID: uniqueidentifier" style="text;align=left;verticalAlign=top;spacingLeft=4;spacingRight=4;overflow=hidden;rotatable=0;points=[[0,0.5],[1,0.5]];portConstraint=eastwest;fillColor=#f5f5f5;fontColor=#333333;strokeColor=#666666;fontStyle=4" parent="LCNr2324bUw4uPDGSLGZ-22" vertex="1">
          <mxGeometry y="26" width="180" height="26" as="geometry" />
        </mxCell>
        <mxCell id="LCNr2324bUw4uPDGSLGZ-24" value="-FullName: nvarchar" style="text;align=left;verticalAlign=top;spacingLeft=4;spacingRight=4;overflow=hidden;rotatable=0;points=[[0,0.5],[1,0.5]];portConstraint=eastwest;rounded=0;shadow=0;html=0;" parent="LCNr2324bUw4uPDGSLGZ-22" vertex="1">
          <mxGeometry y="52" width="180" height="26" as="geometry" />
        </mxCell>
        <mxCell id="LCNr2324bUw4uPDGSLGZ-25" value="-Phone: int" style="text;align=left;verticalAlign=top;spacingLeft=4;spacingRight=4;overflow=hidden;rotatable=0;points=[[0,0.5],[1,0.5]];portConstraint=eastwest;rounded=0;shadow=0;html=0;" parent="LCNr2324bUw4uPDGSLGZ-22" vertex="1">
          <mxGeometry y="78" width="180" height="26" as="geometry" />
        </mxCell>
        <mxCell id="LCNr2324bUw4uPDGSLGZ-26" value="-Email: nvarchar" style="text;align=left;verticalAlign=top;spacingLeft=4;spacingRight=4;overflow=hidden;rotatable=0;points=[[0,0.5],[1,0.5]];portConstraint=eastwest;rounded=0;shadow=0;html=0;" parent="LCNr2324bUw4uPDGSLGZ-22" vertex="1">
          <mxGeometry y="104" width="180" height="26" as="geometry" />
        </mxCell>
        <mxCell id="LCNr2324bUw4uPDGSLGZ-27" value="-Address: nvarchar" style="text;align=left;verticalAlign=top;spacingLeft=4;spacingRight=4;overflow=hidden;rotatable=0;points=[[0,0.5],[1,0.5]];portConstraint=eastwest;rounded=0;shadow=0;html=0;" parent="LCNr2324bUw4uPDGSLGZ-22" vertex="1">
          <mxGeometry y="130" width="180" height="26" as="geometry" />
        </mxCell>
        <mxCell id="LCNr2324bUw4uPDGSLGZ-28" value="" style="line;html=1;strokeWidth=1;align=left;verticalAlign=middle;spacingTop=-1;spacingLeft=3;spacingRight=3;rotatable=0;labelPosition=right;points=[];portConstraint=eastwest;" parent="LCNr2324bUw4uPDGSLGZ-22" vertex="1">
          <mxGeometry y="156" width="180" height="8" as="geometry" />
        </mxCell>
        <mxCell id="LCNr2324bUw4uPDGSLGZ-29" value="Validate" style="text;align=left;verticalAlign=top;spacingLeft=4;spacingRight=4;overflow=hidden;rotatable=0;points=[[0,0.5],[1,0.5]];portConstraint=eastwest;" parent="LCNr2324bUw4uPDGSLGZ-22" vertex="1">
          <mxGeometry y="164" width="180" height="26" as="geometry" />
        </mxCell>
        <mxCell id="LCNr2324bUw4uPDGSLGZ-30" value="Output As Label" style="text;align=left;verticalAlign=top;spacingLeft=4;spacingRight=4;overflow=hidden;rotatable=0;points=[[0,0.5],[1,0.5]];portConstraint=eastwest;" parent="LCNr2324bUw4uPDGSLGZ-22" vertex="1">
          <mxGeometry y="190" width="180" height="26" as="geometry" />
        </mxCell>
        <mxCell id="G7e7qXY8DoMNNicGVx0g-2" value="Feedback" style="swimlane;fontStyle=2;align=center;verticalAlign=top;childLayout=stackLayout;horizontal=1;startSize=26;horizontalStack=0;resizeParent=1;resizeLast=0;collapsible=1;marginBottom=0;rounded=0;shadow=0;strokeWidth=1;" parent="1" vertex="1">
          <mxGeometry x="1090" y="1390" width="260" height="266" as="geometry">
            <mxRectangle x="230" y="140" width="160" height="26" as="alternateBounds" />
          </mxGeometry>
        </mxCell>
        <mxCell id="G7e7qXY8DoMNNicGVx0g-3" value="-FeedBackID : uniqueidentifier" style="text;align=left;verticalAlign=top;spacingLeft=4;spacingRight=4;overflow=hidden;rotatable=0;points=[[0,0.5],[1,0.5]];portConstraint=eastwest;fontStyle=4" parent="G7e7qXY8DoMNNicGVx0g-2" vertex="1">
          <mxGeometry y="26" width="260" height="26" as="geometry" />
        </mxCell>
        <mxCell id="wgqI6q_yxmYhnUd8IYQ2-146" value="-CustomerID: string" style="text;align=left;verticalAlign=top;spacingLeft=4;spacingRight=4;overflow=hidden;rotatable=0;points=[[0,0.5],[1,0.5]];portConstraint=eastwest;rounded=0;shadow=0;html=0;fillColor=#f5f5f5;fontColor=#333333;strokeColor=#666666;" vertex="1" parent="G7e7qXY8DoMNNicGVx0g-2">
          <mxGeometry y="52" width="260" height="22" as="geometry" />
        </mxCell>
        <mxCell id="G7e7qXY8DoMNNicGVx0g-8" value="-MemberID: uniqueidentifier" style="text;align=left;verticalAlign=top;spacingLeft=4;spacingRight=4;overflow=hidden;rotatable=0;points=[[0,0.5],[1,0.5]];portConstraint=eastwest;rounded=0;shadow=0;html=0;fillColor=#f5f5f5;fontColor=#333333;strokeColor=#666666;" parent="G7e7qXY8DoMNNicGVx0g-2" vertex="1">
          <mxGeometry y="74" width="260" height="22" as="geometry" />
        </mxCell>
        <mxCell id="wgqI6q_yxmYhnUd8IYQ2-148" value="-Content: nvarchar" style="text;align=left;verticalAlign=top;spacingLeft=4;spacingRight=4;overflow=hidden;rotatable=0;points=[[0,0.5],[1,0.5]];portConstraint=eastwest;rounded=0;shadow=0;html=0;" vertex="1" parent="G7e7qXY8DoMNNicGVx0g-2">
          <mxGeometry y="96" width="260" height="22" as="geometry" />
        </mxCell>
        <mxCell id="wgqI6q_yxmYhnUd8IYQ2-149" value="-CreateDate: datetime" style="text;align=left;verticalAlign=top;spacingLeft=4;spacingRight=4;overflow=hidden;rotatable=0;points=[[0,0.5],[1,0.5]];portConstraint=eastwest;rounded=0;shadow=0;html=0;" vertex="1" parent="G7e7qXY8DoMNNicGVx0g-2">
          <mxGeometry y="118" width="260" height="22" as="geometry" />
        </mxCell>
        <mxCell id="wgqI6q_yxmYhnUd8IYQ2-150" value="-UpdateDate: datetime" style="text;align=left;verticalAlign=top;spacingLeft=4;spacingRight=4;overflow=hidden;rotatable=0;points=[[0,0.5],[1,0.5]];portConstraint=eastwest;rounded=0;shadow=0;html=0;" vertex="1" parent="G7e7qXY8DoMNNicGVx0g-2">
          <mxGeometry y="140" width="260" height="22" as="geometry" />
        </mxCell>
        <mxCell id="G7e7qXY8DoMNNicGVx0g-11" value="" style="line;html=1;strokeWidth=1;align=left;verticalAlign=middle;spacingTop=-1;spacingLeft=3;spacingRight=3;rotatable=0;labelPosition=right;points=[];portConstraint=eastwest;" parent="G7e7qXY8DoMNNicGVx0g-2" vertex="1">
          <mxGeometry y="162" width="260" height="8" as="geometry" />
        </mxCell>
        <mxCell id="G7e7qXY8DoMNNicGVx0g-12" value="Purchase Parking Pass" style="text;align=left;verticalAlign=top;spacingLeft=4;spacingRight=4;overflow=hidden;rotatable=0;points=[[0,0.5],[1,0.5]];portConstraint=eastwest;" parent="G7e7qXY8DoMNNicGVx0g-2" vertex="1">
          <mxGeometry y="170" width="260" height="26" as="geometry" />
        </mxCell>
        <mxCell id="G7e7qXY8DoMNNicGVx0g-13" style="edgeStyle=orthogonalEdgeStyle;rounded=0;orthogonalLoop=1;jettySize=auto;html=1;exitX=1;exitY=0.5;exitDx=0;exitDy=0;" parent="G7e7qXY8DoMNNicGVx0g-2" edge="1">
          <mxGeometry relative="1" as="geometry">
            <mxPoint x="259.9999999999998" y="63" as="sourcePoint" />
            <mxPoint x="259.9999999999998" y="63" as="targetPoint" />
          </mxGeometry>
        </mxCell>
        <mxCell id="G7e7qXY8DoMNNicGVx0g-14" value="Member" style="swimlane;fontStyle=2;align=center;verticalAlign=top;childLayout=stackLayout;horizontal=1;startSize=26;horizontalStack=0;resizeParent=1;resizeLast=0;collapsible=1;marginBottom=0;rounded=0;shadow=0;strokeWidth=1;" parent="1" vertex="1">
          <mxGeometry x="1440" y="1390" width="260" height="310" as="geometry">
            <mxRectangle x="230" y="140" width="160" height="26" as="alternateBounds" />
          </mxGeometry>
        </mxCell>
        <mxCell id="wgqI6q_yxmYhnUd8IYQ2-159" value="" style="endArrow=classic;html=1;rounded=0;fontSize=12;startSize=8;endSize=8;curved=1;entryX=1;entryY=0.5;entryDx=0;entryDy=0;" edge="1" parent="G7e7qXY8DoMNNicGVx0g-14" target="G7e7qXY8DoMNNicGVx0g-8">
          <mxGeometry width="50" height="50" relative="1" as="geometry">
            <mxPoint y="40" as="sourcePoint" />
            <mxPoint x="50" y="-10" as="targetPoint" />
          </mxGeometry>
        </mxCell>
        <mxCell id="G7e7qXY8DoMNNicGVx0g-15" value="-MemberID : uniqueidentifier" style="text;align=left;verticalAlign=top;spacingLeft=4;spacingRight=4;overflow=hidden;rotatable=0;points=[[0,0.5],[1,0.5]];portConstraint=eastwest;fillColor=#f5f5f5;fontColor=#333333;strokeColor=#666666;fontStyle=4" parent="G7e7qXY8DoMNNicGVx0g-14" vertex="1">
          <mxGeometry y="26" width="260" height="26" as="geometry" />
        </mxCell>
        <mxCell id="G7e7qXY8DoMNNicGVx0g-16" value="-LastName: nvarchar" style="text;align=left;verticalAlign=top;spacingLeft=4;spacingRight=4;overflow=hidden;rotatable=0;points=[[0,0.5],[1,0.5]];portConstraint=eastwest;rounded=0;shadow=0;html=0;" parent="G7e7qXY8DoMNNicGVx0g-14" vertex="1">
          <mxGeometry y="52" width="260" height="26" as="geometry" />
        </mxCell>
        <mxCell id="G7e7qXY8DoMNNicGVx0g-17" value="-FirstName: nvarchar" style="text;align=left;verticalAlign=top;spacingLeft=4;spacingRight=4;overflow=hidden;rotatable=0;points=[[0,0.5],[1,0.5]];portConstraint=eastwest;rounded=0;shadow=0;html=0;" parent="G7e7qXY8DoMNNicGVx0g-14" vertex="1">
          <mxGeometry y="78" width="260" height="22" as="geometry" />
        </mxCell>
        <mxCell id="G7e7qXY8DoMNNicGVx0g-18" value="-Telephone: int" style="text;align=left;verticalAlign=top;spacingLeft=4;spacingRight=4;overflow=hidden;rotatable=0;points=[[0,0.5],[1,0.5]];portConstraint=eastwest;rounded=0;shadow=0;html=0;" parent="G7e7qXY8DoMNNicGVx0g-14" vertex="1">
          <mxGeometry y="100" width="260" height="22" as="geometry" />
        </mxCell>
        <mxCell id="G7e7qXY8DoMNNicGVx0g-19" value="-About: nvarchar&#xa;" style="text;align=left;verticalAlign=top;spacingLeft=4;spacingRight=4;overflow=hidden;rotatable=0;points=[[0,0.5],[1,0.5]];portConstraint=eastwest;rounded=0;shadow=0;html=0;" parent="G7e7qXY8DoMNNicGVx0g-14" vertex="1">
          <mxGeometry y="122" width="260" height="22" as="geometry" />
        </mxCell>
        <mxCell id="G7e7qXY8DoMNNicGVx0g-20" value="-IsStatus : bit" style="text;align=left;verticalAlign=top;spacingLeft=4;spacingRight=4;overflow=hidden;rotatable=0;points=[[0,0.5],[1,0.5]];portConstraint=eastwest;rounded=0;shadow=0;html=0;" parent="G7e7qXY8DoMNNicGVx0g-14" vertex="1">
          <mxGeometry y="144" width="260" height="22" as="geometry" />
        </mxCell>
        <mxCell id="G7e7qXY8DoMNNicGVx0g-24" value="-Birthday : datetime" style="text;align=left;verticalAlign=top;spacingLeft=4;spacingRight=4;overflow=hidden;rotatable=0;points=[[0,0.5],[1,0.5]];portConstraint=eastwest;rounded=0;shadow=0;html=0;" parent="G7e7qXY8DoMNNicGVx0g-14" vertex="1">
          <mxGeometry y="166" width="260" height="22" as="geometry" />
        </mxCell>
        <mxCell id="G7e7qXY8DoMNNicGVx0g-26" value="-Avartar : nvarchar" style="text;align=left;verticalAlign=top;spacingLeft=4;spacingRight=4;overflow=hidden;rotatable=0;points=[[0,0.5],[1,0.5]];portConstraint=eastwest;rounded=0;shadow=0;html=0;" parent="G7e7qXY8DoMNNicGVx0g-14" vertex="1">
          <mxGeometry y="188" width="260" height="22" as="geometry" />
        </mxCell>
        <mxCell id="G7e7qXY8DoMNNicGVx0g-27" value="-Password : nvarchar" style="text;align=left;verticalAlign=top;spacingLeft=4;spacingRight=4;overflow=hidden;rotatable=0;points=[[0,0.5],[1,0.5]];portConstraint=eastwest;rounded=0;shadow=0;html=0;" parent="G7e7qXY8DoMNNicGVx0g-14" vertex="1">
          <mxGeometry y="210" width="260" height="22" as="geometry" />
        </mxCell>
        <mxCell id="G7e7qXY8DoMNNicGVx0g-28" value="RememberMe : bit" style="text;align=left;verticalAlign=top;spacingLeft=4;spacingRight=4;overflow=hidden;rotatable=0;points=[[0,0.5],[1,0.5]];portConstraint=eastwest;rounded=0;shadow=0;html=0;" parent="G7e7qXY8DoMNNicGVx0g-14" vertex="1">
          <mxGeometry y="232" width="260" height="22" as="geometry" />
        </mxCell>
        <mxCell id="G7e7qXY8DoMNNicGVx0g-29" value="-CreatedDate: datetime" style="text;align=left;verticalAlign=top;spacingLeft=4;spacingRight=4;overflow=hidden;rotatable=0;points=[[0,0.5],[1,0.5]];portConstraint=eastwest;rounded=0;shadow=0;html=0;" parent="G7e7qXY8DoMNNicGVx0g-14" vertex="1">
          <mxGeometry y="254" width="260" height="22" as="geometry" />
        </mxCell>
        <mxCell id="G7e7qXY8DoMNNicGVx0g-21" value="" style="line;html=1;strokeWidth=1;align=left;verticalAlign=middle;spacingTop=-1;spacingLeft=3;spacingRight=3;rotatable=0;labelPosition=right;points=[];portConstraint=eastwest;" parent="G7e7qXY8DoMNNicGVx0g-14" vertex="1">
          <mxGeometry y="276" width="260" height="8" as="geometry" />
        </mxCell>
        <mxCell id="G7e7qXY8DoMNNicGVx0g-22" value="Purchase Parking Pass" style="text;align=left;verticalAlign=top;spacingLeft=4;spacingRight=4;overflow=hidden;rotatable=0;points=[[0,0.5],[1,0.5]];portConstraint=eastwest;" parent="G7e7qXY8DoMNNicGVx0g-14" vertex="1">
          <mxGeometry y="284" width="260" height="26" as="geometry" />
        </mxCell>
        <mxCell id="G7e7qXY8DoMNNicGVx0g-23" style="edgeStyle=orthogonalEdgeStyle;rounded=0;orthogonalLoop=1;jettySize=auto;html=1;exitX=1;exitY=0.5;exitDx=0;exitDy=0;" parent="G7e7qXY8DoMNNicGVx0g-14" source="G7e7qXY8DoMNNicGVx0g-18" target="G7e7qXY8DoMNNicGVx0g-18" edge="1">
          <mxGeometry relative="1" as="geometry" />
        </mxCell>
        <mxCell id="G7e7qXY8DoMNNicGVx0g-30" value="Menu" style="swimlane;fontStyle=2;align=center;verticalAlign=top;childLayout=stackLayout;horizontal=1;startSize=26;horizontalStack=0;resizeParent=1;resizeLast=0;collapsible=1;marginBottom=0;rounded=0;shadow=0;strokeWidth=1;" parent="1" vertex="1">
          <mxGeometry x="950" y="1790" width="260" height="200" as="geometry">
            <mxRectangle x="230" y="140" width="160" height="26" as="alternateBounds" />
          </mxGeometry>
        </mxCell>
        <mxCell id="G7e7qXY8DoMNNicGVx0g-31" value="-ID : int" style="text;align=left;verticalAlign=top;spacingLeft=4;spacingRight=4;overflow=hidden;rotatable=0;points=[[0,0.5],[1,0.5]];portConstraint=eastwest;" parent="G7e7qXY8DoMNNicGVx0g-30" vertex="1">
          <mxGeometry y="26" width="260" height="26" as="geometry" />
        </mxCell>
        <mxCell id="G7e7qXY8DoMNNicGVx0g-32" value="-Name: nvarchar" style="text;align=left;verticalAlign=top;spacingLeft=4;spacingRight=4;overflow=hidden;rotatable=0;points=[[0,0.5],[1,0.5]];portConstraint=eastwest;rounded=0;shadow=0;html=0;" parent="G7e7qXY8DoMNNicGVx0g-30" vertex="1">
          <mxGeometry y="52" width="260" height="26" as="geometry" />
        </mxCell>
        <mxCell id="G7e7qXY8DoMNNicGVx0g-33" value="-Description: nvarchar" style="text;align=left;verticalAlign=top;spacingLeft=4;spacingRight=4;overflow=hidden;rotatable=0;points=[[0,0.5],[1,0.5]];portConstraint=eastwest;rounded=0;shadow=0;html=0;" parent="G7e7qXY8DoMNNicGVx0g-30" vertex="1">
          <mxGeometry y="78" width="260" height="22" as="geometry" />
        </mxCell>
        <mxCell id="G7e7qXY8DoMNNicGVx0g-34" value="-Link: varchar" style="text;align=left;verticalAlign=top;spacingLeft=4;spacingRight=4;overflow=hidden;rotatable=0;points=[[0,0.5],[1,0.5]];portConstraint=eastwest;rounded=0;shadow=0;html=0;" parent="G7e7qXY8DoMNNicGVx0g-30" vertex="1">
          <mxGeometry y="100" width="260" height="22" as="geometry" />
        </mxCell>
        <mxCell id="G7e7qXY8DoMNNicGVx0g-35" value="-IsStatus: bit" style="text;align=left;verticalAlign=top;spacingLeft=4;spacingRight=4;overflow=hidden;rotatable=0;points=[[0,0.5],[1,0.5]];portConstraint=eastwest;rounded=0;shadow=0;html=0;" parent="G7e7qXY8DoMNNicGVx0g-30" vertex="1">
          <mxGeometry y="122" width="260" height="22" as="geometry" />
        </mxCell>
        <mxCell id="G7e7qXY8DoMNNicGVx0g-37" value="" style="line;html=1;strokeWidth=1;align=left;verticalAlign=middle;spacingTop=-1;spacingLeft=3;spacingRight=3;rotatable=0;labelPosition=right;points=[];portConstraint=eastwest;" parent="G7e7qXY8DoMNNicGVx0g-30" vertex="1">
          <mxGeometry y="144" width="260" height="8" as="geometry" />
        </mxCell>
        <mxCell id="G7e7qXY8DoMNNicGVx0g-38" value="Purchase Parking Pass" style="text;align=left;verticalAlign=top;spacingLeft=4;spacingRight=4;overflow=hidden;rotatable=0;points=[[0,0.5],[1,0.5]];portConstraint=eastwest;" parent="G7e7qXY8DoMNNicGVx0g-30" vertex="1">
          <mxGeometry y="152" width="260" height="26" as="geometry" />
        </mxCell>
        <mxCell id="G7e7qXY8DoMNNicGVx0g-39" style="edgeStyle=orthogonalEdgeStyle;rounded=0;orthogonalLoop=1;jettySize=auto;html=1;exitX=1;exitY=0.5;exitDx=0;exitDy=0;" parent="G7e7qXY8DoMNNicGVx0g-30" source="G7e7qXY8DoMNNicGVx0g-34" target="G7e7qXY8DoMNNicGVx0g-34" edge="1">
          <mxGeometry relative="1" as="geometry" />
        </mxCell>
        <mxCell id="G7e7qXY8DoMNNicGVx0g-55" value="Order" style="swimlane;fontStyle=2;align=center;verticalAlign=top;childLayout=stackLayout;horizontal=1;startSize=26;horizontalStack=0;resizeParent=1;resizeLast=0;collapsible=1;marginBottom=0;rounded=0;shadow=0;strokeWidth=1;" parent="1" vertex="1">
          <mxGeometry x="2150" y="1400" width="260" height="310" as="geometry">
            <mxRectangle x="230" y="140" width="160" height="26" as="alternateBounds" />
          </mxGeometry>
        </mxCell>
        <mxCell id="G7e7qXY8DoMNNicGVx0g-56" value="-OrderID: uniqueidentifier" style="text;align=left;verticalAlign=top;spacingLeft=4;spacingRight=4;overflow=hidden;rotatable=0;points=[[0,0.5],[1,0.5]];portConstraint=eastwest;fillColor=#f5f5f5;fontColor=#333333;strokeColor=#666666;" parent="G7e7qXY8DoMNNicGVx0g-55" vertex="1">
          <mxGeometry y="26" width="260" height="26" as="geometry" />
        </mxCell>
        <mxCell id="G7e7qXY8DoMNNicGVx0g-57" value="-OrderDate: datetime" style="text;align=left;verticalAlign=top;spacingLeft=4;spacingRight=4;overflow=hidden;rotatable=0;points=[[0,0.5],[1,0.5]];portConstraint=eastwest;rounded=0;shadow=0;html=0;" parent="G7e7qXY8DoMNNicGVx0g-55" vertex="1">
          <mxGeometry y="52" width="260" height="26" as="geometry" />
        </mxCell>
        <mxCell id="G7e7qXY8DoMNNicGVx0g-60" value="-CustomerID: uniqueidentifier&#xa;" style="text;align=left;verticalAlign=top;spacingLeft=4;spacingRight=4;overflow=hidden;rotatable=0;points=[[0,0.5],[1,0.5]];portConstraint=eastwest;rounded=0;shadow=0;html=0;" parent="G7e7qXY8DoMNNicGVx0g-55" vertex="1">
          <mxGeometry y="78" width="260" height="22" as="geometry" />
        </mxCell>
        <mxCell id="G7e7qXY8DoMNNicGVx0g-61" value="-Status : int" style="text;align=left;verticalAlign=top;spacingLeft=4;spacingRight=4;overflow=hidden;rotatable=0;points=[[0,0.5],[1,0.5]];portConstraint=eastwest;rounded=0;shadow=0;html=0;" parent="G7e7qXY8DoMNNicGVx0g-55" vertex="1">
          <mxGeometry y="100" width="260" height="22" as="geometry" />
        </mxCell>
        <mxCell id="G7e7qXY8DoMNNicGVx0g-62" value="-MemberID: uniqueidentifier" style="text;align=left;verticalAlign=top;spacingLeft=4;spacingRight=4;overflow=hidden;rotatable=0;points=[[0,0.5],[1,0.5]];portConstraint=eastwest;rounded=0;shadow=0;html=0;" parent="G7e7qXY8DoMNNicGVx0g-55" vertex="1">
          <mxGeometry y="122" width="260" height="22" as="geometry" />
        </mxCell>
        <mxCell id="G7e7qXY8DoMNNicGVx0g-63" value="-IsFreeShip: bit" style="text;align=left;verticalAlign=top;spacingLeft=4;spacingRight=4;overflow=hidden;rotatable=0;points=[[0,0.5],[1,0.5]];portConstraint=eastwest;rounded=0;shadow=0;html=0;" parent="G7e7qXY8DoMNNicGVx0g-55" vertex="1">
          <mxGeometry y="144" width="260" height="22" as="geometry" />
        </mxCell>
        <mxCell id="G7e7qXY8DoMNNicGVx0g-67" value="" style="line;html=1;strokeWidth=1;align=left;verticalAlign=middle;spacingTop=-1;spacingLeft=3;spacingRight=3;rotatable=0;labelPosition=right;points=[];portConstraint=eastwest;" parent="G7e7qXY8DoMNNicGVx0g-55" vertex="1">
          <mxGeometry y="166" width="260" height="8" as="geometry" />
        </mxCell>
        <mxCell id="G7e7qXY8DoMNNicGVx0g-68" value="Purchase Parking Pass" style="text;align=left;verticalAlign=top;spacingLeft=4;spacingRight=4;overflow=hidden;rotatable=0;points=[[0,0.5],[1,0.5]];portConstraint=eastwest;" parent="G7e7qXY8DoMNNicGVx0g-55" vertex="1">
          <mxGeometry y="174" width="260" height="26" as="geometry" />
        </mxCell>
        <mxCell id="G7e7qXY8DoMNNicGVx0g-69" style="edgeStyle=orthogonalEdgeStyle;rounded=0;orthogonalLoop=1;jettySize=auto;html=1;exitX=1;exitY=0.5;exitDx=0;exitDy=0;" parent="G7e7qXY8DoMNNicGVx0g-55" edge="1">
          <mxGeometry relative="1" as="geometry">
            <mxPoint x="260.00000000000045" y="111" as="sourcePoint" />
            <mxPoint x="260.00000000000045" y="111" as="targetPoint" />
          </mxGeometry>
        </mxCell>
        <mxCell id="wgqI6q_yxmYhnUd8IYQ2-1" value="Supplier" style="swimlane;fontStyle=2;align=center;verticalAlign=top;childLayout=stackLayout;horizontal=1;startSize=26;horizontalStack=0;resizeParent=1;resizeLast=0;collapsible=1;marginBottom=0;rounded=0;shadow=0;strokeWidth=1;" vertex="1" parent="1">
          <mxGeometry x="1360" y="1030" width="260" height="266" as="geometry">
            <mxRectangle x="230" y="140" width="160" height="26" as="alternateBounds" />
          </mxGeometry>
        </mxCell>
        <mxCell id="wgqI6q_yxmYhnUd8IYQ2-2" value="-SupplierID : uniqueidentifier" style="text;align=left;verticalAlign=top;spacingLeft=4;spacingRight=4;overflow=hidden;rotatable=0;points=[[0,0.5],[1,0.5]];portConstraint=eastwest;fillColor=#f5f5f5;fontColor=#333333;strokeColor=#666666;" vertex="1" parent="wgqI6q_yxmYhnUd8IYQ2-1">
          <mxGeometry y="26" width="260" height="26" as="geometry" />
        </mxCell>
        <mxCell id="wgqI6q_yxmYhnUd8IYQ2-3" value="-Name: nvarchar" style="text;align=left;verticalAlign=top;spacingLeft=4;spacingRight=4;overflow=hidden;rotatable=0;points=[[0,0.5],[1,0.5]];portConstraint=eastwest;rounded=0;shadow=0;html=0;" vertex="1" parent="wgqI6q_yxmYhnUd8IYQ2-1">
          <mxGeometry y="52" width="260" height="26" as="geometry" />
        </mxCell>
        <mxCell id="wgqI6q_yxmYhnUd8IYQ2-4" value="-Email: nvarchar" style="text;align=left;verticalAlign=top;spacingLeft=4;spacingRight=4;overflow=hidden;rotatable=0;points=[[0,0.5],[1,0.5]];portConstraint=eastwest;rounded=0;shadow=0;html=0;" vertex="1" parent="wgqI6q_yxmYhnUd8IYQ2-1">
          <mxGeometry y="78" width="260" height="22" as="geometry" />
        </mxCell>
        <mxCell id="wgqI6q_yxmYhnUd8IYQ2-5" value="-Phone: int" style="text;align=left;verticalAlign=top;spacingLeft=4;spacingRight=4;overflow=hidden;rotatable=0;points=[[0,0.5],[1,0.5]];portConstraint=eastwest;rounded=0;shadow=0;html=0;" vertex="1" parent="wgqI6q_yxmYhnUd8IYQ2-1">
          <mxGeometry y="100" width="260" height="22" as="geometry" />
        </mxCell>
        <mxCell id="wgqI6q_yxmYhnUd8IYQ2-7" value="-Address : nvarchar" style="text;align=left;verticalAlign=top;spacingLeft=4;spacingRight=4;overflow=hidden;rotatable=0;points=[[0,0.5],[1,0.5]];portConstraint=eastwest;rounded=0;shadow=0;html=0;" vertex="1" parent="wgqI6q_yxmYhnUd8IYQ2-1">
          <mxGeometry y="122" width="260" height="22" as="geometry" />
        </mxCell>
        <mxCell id="wgqI6q_yxmYhnUd8IYQ2-8" value="" style="line;html=1;strokeWidth=1;align=left;verticalAlign=middle;spacingTop=-1;spacingLeft=3;spacingRight=3;rotatable=0;labelPosition=right;points=[];portConstraint=eastwest;" vertex="1" parent="wgqI6q_yxmYhnUd8IYQ2-1">
          <mxGeometry y="144" width="260" height="8" as="geometry" />
        </mxCell>
        <mxCell id="wgqI6q_yxmYhnUd8IYQ2-9" value="Purchase Parking Pass" style="text;align=left;verticalAlign=top;spacingLeft=4;spacingRight=4;overflow=hidden;rotatable=0;points=[[0,0.5],[1,0.5]];portConstraint=eastwest;" vertex="1" parent="wgqI6q_yxmYhnUd8IYQ2-1">
          <mxGeometry y="152" width="260" height="26" as="geometry" />
        </mxCell>
        <mxCell id="wgqI6q_yxmYhnUd8IYQ2-10" style="edgeStyle=orthogonalEdgeStyle;rounded=0;orthogonalLoop=1;jettySize=auto;html=1;exitX=1;exitY=0.5;exitDx=0;exitDy=0;" edge="1" parent="wgqI6q_yxmYhnUd8IYQ2-1" source="wgqI6q_yxmYhnUd8IYQ2-5" target="wgqI6q_yxmYhnUd8IYQ2-5">
          <mxGeometry relative="1" as="geometry" />
        </mxCell>
        <mxCell id="wgqI6q_yxmYhnUd8IYQ2-11" value="Slider" style="swimlane;fontStyle=2;align=center;verticalAlign=top;childLayout=stackLayout;horizontal=1;startSize=26;horizontalStack=0;resizeParent=1;resizeLast=0;collapsible=1;marginBottom=0;rounded=0;shadow=0;strokeWidth=1;" vertex="1" parent="1">
          <mxGeometry x="1280" y="1790" width="260" height="200" as="geometry">
            <mxRectangle x="230" y="140" width="160" height="26" as="alternateBounds" />
          </mxGeometry>
        </mxCell>
        <mxCell id="wgqI6q_yxmYhnUd8IYQ2-12" value="-ID : int" style="text;align=left;verticalAlign=top;spacingLeft=4;spacingRight=4;overflow=hidden;rotatable=0;points=[[0,0.5],[1,0.5]];portConstraint=eastwest;" vertex="1" parent="wgqI6q_yxmYhnUd8IYQ2-11">
          <mxGeometry y="26" width="260" height="26" as="geometry" />
        </mxCell>
        <mxCell id="wgqI6q_yxmYhnUd8IYQ2-13" value="-Name: nvarchar" style="text;align=left;verticalAlign=top;spacingLeft=4;spacingRight=4;overflow=hidden;rotatable=0;points=[[0,0.5],[1,0.5]];portConstraint=eastwest;rounded=0;shadow=0;html=0;" vertex="1" parent="wgqI6q_yxmYhnUd8IYQ2-11">
          <mxGeometry y="52" width="260" height="26" as="geometry" />
        </mxCell>
        <mxCell id="wgqI6q_yxmYhnUd8IYQ2-14" value="-Image: nvarchar" style="text;align=left;verticalAlign=top;spacingLeft=4;spacingRight=4;overflow=hidden;rotatable=0;points=[[0,0.5],[1,0.5]];portConstraint=eastwest;rounded=0;shadow=0;html=0;" vertex="1" parent="wgqI6q_yxmYhnUd8IYQ2-11">
          <mxGeometry y="78" width="260" height="22" as="geometry" />
        </mxCell>
        <mxCell id="wgqI6q_yxmYhnUd8IYQ2-15" value="-Link: varchar" style="text;align=left;verticalAlign=top;spacingLeft=4;spacingRight=4;overflow=hidden;rotatable=0;points=[[0,0.5],[1,0.5]];portConstraint=eastwest;rounded=0;shadow=0;html=0;" vertex="1" parent="wgqI6q_yxmYhnUd8IYQ2-11">
          <mxGeometry y="100" width="260" height="22" as="geometry" />
        </mxCell>
        <mxCell id="wgqI6q_yxmYhnUd8IYQ2-16" value="-IsStatus: bit" style="text;align=left;verticalAlign=top;spacingLeft=4;spacingRight=4;overflow=hidden;rotatable=0;points=[[0,0.5],[1,0.5]];portConstraint=eastwest;rounded=0;shadow=0;html=0;" vertex="1" parent="wgqI6q_yxmYhnUd8IYQ2-11">
          <mxGeometry y="122" width="260" height="22" as="geometry" />
        </mxCell>
        <mxCell id="wgqI6q_yxmYhnUd8IYQ2-17" value="" style="line;html=1;strokeWidth=1;align=left;verticalAlign=middle;spacingTop=-1;spacingLeft=3;spacingRight=3;rotatable=0;labelPosition=right;points=[];portConstraint=eastwest;" vertex="1" parent="wgqI6q_yxmYhnUd8IYQ2-11">
          <mxGeometry y="144" width="260" height="8" as="geometry" />
        </mxCell>
        <mxCell id="wgqI6q_yxmYhnUd8IYQ2-18" value="Purchase Parking Pass" style="text;align=left;verticalAlign=top;spacingLeft=4;spacingRight=4;overflow=hidden;rotatable=0;points=[[0,0.5],[1,0.5]];portConstraint=eastwest;" vertex="1" parent="wgqI6q_yxmYhnUd8IYQ2-11">
          <mxGeometry y="152" width="260" height="26" as="geometry" />
        </mxCell>
        <mxCell id="wgqI6q_yxmYhnUd8IYQ2-19" style="edgeStyle=orthogonalEdgeStyle;rounded=0;orthogonalLoop=1;jettySize=auto;html=1;exitX=1;exitY=0.5;exitDx=0;exitDy=0;" edge="1" parent="wgqI6q_yxmYhnUd8IYQ2-11" source="wgqI6q_yxmYhnUd8IYQ2-15" target="wgqI6q_yxmYhnUd8IYQ2-15">
          <mxGeometry relative="1" as="geometry" />
        </mxCell>
        <mxCell id="wgqI6q_yxmYhnUd8IYQ2-20" value="ProductComment" style="swimlane;fontStyle=2;align=center;verticalAlign=top;childLayout=stackLayout;horizontal=1;startSize=26;horizontalStack=0;resizeParent=1;resizeLast=0;collapsible=1;marginBottom=0;rounded=0;shadow=0;strokeWidth=1;" vertex="1" parent="1">
          <mxGeometry x="620" y="670" width="260" height="266" as="geometry">
            <mxRectangle x="230" y="140" width="160" height="26" as="alternateBounds" />
          </mxGeometry>
        </mxCell>
        <mxCell id="wgqI6q_yxmYhnUd8IYQ2-21" value="-CommentID : uniqueidentifier" style="text;align=left;verticalAlign=top;spacingLeft=4;spacingRight=4;overflow=hidden;rotatable=0;points=[[0,0.5],[1,0.5]];portConstraint=eastwest;fontStyle=4" vertex="1" parent="wgqI6q_yxmYhnUd8IYQ2-20">
          <mxGeometry y="26" width="260" height="26" as="geometry" />
        </mxCell>
        <mxCell id="wgqI6q_yxmYhnUd8IYQ2-22" value="-Name: nvarchar" style="text;align=left;verticalAlign=top;spacingLeft=4;spacingRight=4;overflow=hidden;rotatable=0;points=[[0,0.5],[1,0.5]];portConstraint=eastwest;rounded=0;shadow=0;html=0;" vertex="1" parent="wgqI6q_yxmYhnUd8IYQ2-20">
          <mxGeometry y="52" width="260" height="26" as="geometry" />
        </mxCell>
        <mxCell id="wgqI6q_yxmYhnUd8IYQ2-23" value="-Detail: nvarchar" style="text;align=left;verticalAlign=top;spacingLeft=4;spacingRight=4;overflow=hidden;rotatable=0;points=[[0,0.5],[1,0.5]];portConstraint=eastwest;rounded=0;shadow=0;html=0;" vertex="1" parent="wgqI6q_yxmYhnUd8IYQ2-20">
          <mxGeometry y="78" width="260" height="22" as="geometry" />
        </mxCell>
        <mxCell id="wgqI6q_yxmYhnUd8IYQ2-24" value="-ProductID: uniqueidentifier" style="text;align=left;verticalAlign=top;spacingLeft=4;spacingRight=4;overflow=hidden;rotatable=0;points=[[0,0.5],[1,0.5]];portConstraint=eastwest;rounded=0;shadow=0;html=0;fillColor=#f5f5f5;fontColor=#333333;strokeColor=#666666;" vertex="1" parent="wgqI6q_yxmYhnUd8IYQ2-20">
          <mxGeometry y="100" width="260" height="22" as="geometry" />
        </mxCell>
        <mxCell id="wgqI6q_yxmYhnUd8IYQ2-25" value="-CustomerID: uniqueidentifier" style="text;align=left;verticalAlign=top;spacingLeft=4;spacingRight=4;overflow=hidden;rotatable=0;points=[[0,0.5],[1,0.5]];portConstraint=eastwest;rounded=0;shadow=0;html=0;" vertex="1" parent="wgqI6q_yxmYhnUd8IYQ2-20">
          <mxGeometry y="122" width="260" height="22" as="geometry" />
        </mxCell>
        <mxCell id="wgqI6q_yxmYhnUd8IYQ2-28" value="-CreateDate : datetime" style="text;align=left;verticalAlign=top;spacingLeft=4;spacingRight=4;overflow=hidden;rotatable=0;points=[[0,0.5],[1,0.5]];portConstraint=eastwest;rounded=0;shadow=0;html=0;" vertex="1" parent="wgqI6q_yxmYhnUd8IYQ2-20">
          <mxGeometry y="144" width="260" height="22" as="geometry" />
        </mxCell>
        <mxCell id="wgqI6q_yxmYhnUd8IYQ2-29" value="-UpdateDate: datetime" style="text;align=left;verticalAlign=top;spacingLeft=4;spacingRight=4;overflow=hidden;rotatable=0;points=[[0,0.5],[1,0.5]];portConstraint=eastwest;rounded=0;shadow=0;html=0;" vertex="1" parent="wgqI6q_yxmYhnUd8IYQ2-20">
          <mxGeometry y="166" width="260" height="22" as="geometry" />
        </mxCell>
        <mxCell id="wgqI6q_yxmYhnUd8IYQ2-30" value="" style="line;html=1;strokeWidth=1;align=left;verticalAlign=middle;spacingTop=-1;spacingLeft=3;spacingRight=3;rotatable=0;labelPosition=right;points=[];portConstraint=eastwest;" vertex="1" parent="wgqI6q_yxmYhnUd8IYQ2-20">
          <mxGeometry y="188" width="260" height="8" as="geometry" />
        </mxCell>
        <mxCell id="wgqI6q_yxmYhnUd8IYQ2-31" value="Purchase Parking Pass" style="text;align=left;verticalAlign=top;spacingLeft=4;spacingRight=4;overflow=hidden;rotatable=0;points=[[0,0.5],[1,0.5]];portConstraint=eastwest;" vertex="1" parent="wgqI6q_yxmYhnUd8IYQ2-20">
          <mxGeometry y="196" width="260" height="26" as="geometry" />
        </mxCell>
        <mxCell id="wgqI6q_yxmYhnUd8IYQ2-32" style="edgeStyle=orthogonalEdgeStyle;rounded=0;orthogonalLoop=1;jettySize=auto;html=1;exitX=1;exitY=0.5;exitDx=0;exitDy=0;" edge="1" parent="wgqI6q_yxmYhnUd8IYQ2-20" source="wgqI6q_yxmYhnUd8IYQ2-24" target="wgqI6q_yxmYhnUd8IYQ2-24">
          <mxGeometry relative="1" as="geometry" />
        </mxCell>
        <mxCell id="wgqI6q_yxmYhnUd8IYQ2-33" value="ProductCategory" style="swimlane;fontStyle=2;align=center;verticalAlign=top;childLayout=stackLayout;horizontal=1;startSize=26;horizontalStack=0;resizeParent=1;resizeLast=0;collapsible=1;marginBottom=0;rounded=0;shadow=0;strokeWidth=1;" vertex="1" parent="1">
          <mxGeometry x="1350" y="670" width="260" height="288" as="geometry">
            <mxRectangle x="230" y="140" width="160" height="26" as="alternateBounds" />
          </mxGeometry>
        </mxCell>
        <mxCell id="wgqI6q_yxmYhnUd8IYQ2-34" value="-CateID : uniqueidentifier" style="text;align=left;verticalAlign=top;spacingLeft=4;spacingRight=4;overflow=hidden;rotatable=0;points=[[0,0.5],[1,0.5]];portConstraint=eastwest;fillColor=#f5f5f5;fontColor=#333333;strokeColor=#666666;fontStyle=4" vertex="1" parent="wgqI6q_yxmYhnUd8IYQ2-33">
          <mxGeometry y="26" width="260" height="26" as="geometry" />
        </mxCell>
        <mxCell id="wgqI6q_yxmYhnUd8IYQ2-35" value="-Name: nvarchar" style="text;align=left;verticalAlign=top;spacingLeft=4;spacingRight=4;overflow=hidden;rotatable=0;points=[[0,0.5],[1,0.5]];portConstraint=eastwest;rounded=0;shadow=0;html=0;" vertex="1" parent="wgqI6q_yxmYhnUd8IYQ2-33">
          <mxGeometry y="52" width="260" height="26" as="geometry" />
        </mxCell>
        <mxCell id="wgqI6q_yxmYhnUd8IYQ2-36" value="-Slug: nvarchar" style="text;align=left;verticalAlign=top;spacingLeft=4;spacingRight=4;overflow=hidden;rotatable=0;points=[[0,0.5],[1,0.5]];portConstraint=eastwest;rounded=0;shadow=0;html=0;" vertex="1" parent="wgqI6q_yxmYhnUd8IYQ2-33">
          <mxGeometry y="78" width="260" height="22" as="geometry" />
        </mxCell>
        <mxCell id="wgqI6q_yxmYhnUd8IYQ2-37" value="-IsStatus: bit" style="text;align=left;verticalAlign=top;spacingLeft=4;spacingRight=4;overflow=hidden;rotatable=0;points=[[0,0.5],[1,0.5]];portConstraint=eastwest;rounded=0;shadow=0;html=0;" vertex="1" parent="wgqI6q_yxmYhnUd8IYQ2-33">
          <mxGeometry y="100" width="260" height="22" as="geometry" />
        </mxCell>
        <mxCell id="wgqI6q_yxmYhnUd8IYQ2-38" value="-Sort: int" style="text;align=left;verticalAlign=top;spacingLeft=4;spacingRight=4;overflow=hidden;rotatable=0;points=[[0,0.5],[1,0.5]];portConstraint=eastwest;rounded=0;shadow=0;html=0;" vertex="1" parent="wgqI6q_yxmYhnUd8IYQ2-33">
          <mxGeometry y="122" width="260" height="22" as="geometry" />
        </mxCell>
        <mxCell id="wgqI6q_yxmYhnUd8IYQ2-44" value="-ParentID: int" style="text;align=left;verticalAlign=top;spacingLeft=4;spacingRight=4;overflow=hidden;rotatable=0;points=[[0,0.5],[1,0.5]];portConstraint=eastwest;rounded=0;shadow=0;html=0;" vertex="1" parent="wgqI6q_yxmYhnUd8IYQ2-33">
          <mxGeometry y="144" width="260" height="22" as="geometry" />
        </mxCell>
        <mxCell id="wgqI6q_yxmYhnUd8IYQ2-45" value="-MetaKeyword: nvarchar" style="text;align=left;verticalAlign=top;spacingLeft=4;spacingRight=4;overflow=hidden;rotatable=0;points=[[0,0.5],[1,0.5]];portConstraint=eastwest;rounded=0;shadow=0;html=0;" vertex="1" parent="wgqI6q_yxmYhnUd8IYQ2-33">
          <mxGeometry y="166" width="260" height="22" as="geometry" />
        </mxCell>
        <mxCell id="wgqI6q_yxmYhnUd8IYQ2-46" value="-MetaDescription: nvarchar" style="text;align=left;verticalAlign=top;spacingLeft=4;spacingRight=4;overflow=hidden;rotatable=0;points=[[0,0.5],[1,0.5]];portConstraint=eastwest;rounded=0;shadow=0;html=0;" vertex="1" parent="wgqI6q_yxmYhnUd8IYQ2-33">
          <mxGeometry y="188" width="260" height="22" as="geometry" />
        </mxCell>
        <mxCell id="wgqI6q_yxmYhnUd8IYQ2-39" value="-CreateDate : datetime" style="text;align=left;verticalAlign=top;spacingLeft=4;spacingRight=4;overflow=hidden;rotatable=0;points=[[0,0.5],[1,0.5]];portConstraint=eastwest;rounded=0;shadow=0;html=0;" vertex="1" parent="wgqI6q_yxmYhnUd8IYQ2-33">
          <mxGeometry y="210" width="260" height="22" as="geometry" />
        </mxCell>
        <mxCell id="wgqI6q_yxmYhnUd8IYQ2-40" value="-UpdateDate: datetime" style="text;align=left;verticalAlign=top;spacingLeft=4;spacingRight=4;overflow=hidden;rotatable=0;points=[[0,0.5],[1,0.5]];portConstraint=eastwest;rounded=0;shadow=0;html=0;" vertex="1" parent="wgqI6q_yxmYhnUd8IYQ2-33">
          <mxGeometry y="232" width="260" height="22" as="geometry" />
        </mxCell>
        <mxCell id="wgqI6q_yxmYhnUd8IYQ2-41" value="" style="line;html=1;strokeWidth=1;align=left;verticalAlign=middle;spacingTop=-1;spacingLeft=3;spacingRight=3;rotatable=0;labelPosition=right;points=[];portConstraint=eastwest;" vertex="1" parent="wgqI6q_yxmYhnUd8IYQ2-33">
          <mxGeometry y="254" width="260" height="8" as="geometry" />
        </mxCell>
        <mxCell id="wgqI6q_yxmYhnUd8IYQ2-42" value="Purchase Parking Pass" style="text;align=left;verticalAlign=top;spacingLeft=4;spacingRight=4;overflow=hidden;rotatable=0;points=[[0,0.5],[1,0.5]];portConstraint=eastwest;" vertex="1" parent="wgqI6q_yxmYhnUd8IYQ2-33">
          <mxGeometry y="262" width="260" height="26" as="geometry" />
        </mxCell>
        <mxCell id="wgqI6q_yxmYhnUd8IYQ2-43" style="edgeStyle=orthogonalEdgeStyle;rounded=0;orthogonalLoop=1;jettySize=auto;html=1;exitX=1;exitY=0.5;exitDx=0;exitDy=0;" edge="1" parent="wgqI6q_yxmYhnUd8IYQ2-33" source="wgqI6q_yxmYhnUd8IYQ2-37" target="wgqI6q_yxmYhnUd8IYQ2-37">
          <mxGeometry relative="1" as="geometry" />
        </mxCell>
        <mxCell id="wgqI6q_yxmYhnUd8IYQ2-47" value="Product" style="swimlane;fontStyle=2;align=center;verticalAlign=top;childLayout=stackLayout;horizontal=1;startSize=26;horizontalStack=0;resizeParent=1;resizeLast=0;collapsible=1;marginBottom=0;rounded=0;shadow=0;strokeWidth=1;" vertex="1" parent="1">
          <mxGeometry x="960" y="670" width="260" height="552" as="geometry">
            <mxRectangle x="230" y="140" width="160" height="26" as="alternateBounds" />
          </mxGeometry>
        </mxCell>
        <mxCell id="wgqI6q_yxmYhnUd8IYQ2-48" value="-ProductID : uniqueidentifier" style="text;align=left;verticalAlign=top;spacingLeft=4;spacingRight=4;overflow=hidden;rotatable=0;points=[[0,0.5],[1,0.5]];portConstraint=eastwest;fontStyle=4;fillColor=#f5f5f5;fontColor=#333333;strokeColor=#666666;" vertex="1" parent="wgqI6q_yxmYhnUd8IYQ2-47">
          <mxGeometry y="26" width="260" height="26" as="geometry" />
        </mxCell>
        <mxCell id="wgqI6q_yxmYhnUd8IYQ2-49" value="-Name: nvarchar" style="text;align=left;verticalAlign=top;spacingLeft=4;spacingRight=4;overflow=hidden;rotatable=0;points=[[0,0.5],[1,0.5]];portConstraint=eastwest;rounded=0;shadow=0;html=0;" vertex="1" parent="wgqI6q_yxmYhnUd8IYQ2-47">
          <mxGeometry y="52" width="260" height="26" as="geometry" />
        </mxCell>
        <mxCell id="wgqI6q_yxmYhnUd8IYQ2-50" value="-Slug: nvarchar" style="text;align=left;verticalAlign=top;spacingLeft=4;spacingRight=4;overflow=hidden;rotatable=0;points=[[0,0.5],[1,0.5]];portConstraint=eastwest;rounded=0;shadow=0;html=0;" vertex="1" parent="wgqI6q_yxmYhnUd8IYQ2-47">
          <mxGeometry y="78" width="260" height="22" as="geometry" />
        </mxCell>
        <mxCell id="wgqI6q_yxmYhnUd8IYQ2-51" value="-Image: nvarchar" style="text;align=left;verticalAlign=top;spacingLeft=4;spacingRight=4;overflow=hidden;rotatable=0;points=[[0,0.5],[1,0.5]];portConstraint=eastwest;rounded=0;shadow=0;html=0;" vertex="1" parent="wgqI6q_yxmYhnUd8IYQ2-47">
          <mxGeometry y="100" width="260" height="22" as="geometry" />
        </mxCell>
        <mxCell id="wgqI6q_yxmYhnUd8IYQ2-52" value="-IsFreeship: bit" style="text;align=left;verticalAlign=top;spacingLeft=4;spacingRight=4;overflow=hidden;rotatable=0;points=[[0,0.5],[1,0.5]];portConstraint=eastwest;rounded=0;shadow=0;html=0;" vertex="1" parent="wgqI6q_yxmYhnUd8IYQ2-47">
          <mxGeometry y="122" width="260" height="22" as="geometry" />
        </mxCell>
        <mxCell id="wgqI6q_yxmYhnUd8IYQ2-53" value="-ListImage: nvarchar" style="text;align=left;verticalAlign=top;spacingLeft=4;spacingRight=4;overflow=hidden;rotatable=0;points=[[0,0.5],[1,0.5]];portConstraint=eastwest;rounded=0;shadow=0;html=0;" vertex="1" parent="wgqI6q_yxmYhnUd8IYQ2-47">
          <mxGeometry y="144" width="260" height="22" as="geometry" />
        </mxCell>
        <mxCell id="wgqI6q_yxmYhnUd8IYQ2-61" value="-Price: decimal" style="text;align=left;verticalAlign=top;spacingLeft=4;spacingRight=4;overflow=hidden;rotatable=0;points=[[0,0.5],[1,0.5]];portConstraint=eastwest;rounded=0;shadow=0;html=0;" vertex="1" parent="wgqI6q_yxmYhnUd8IYQ2-47">
          <mxGeometry y="166" width="260" height="22" as="geometry" />
        </mxCell>
        <mxCell id="wgqI6q_yxmYhnUd8IYQ2-62" value="-PromotionPrice: decimal" style="text;align=left;verticalAlign=top;spacingLeft=4;spacingRight=4;overflow=hidden;rotatable=0;points=[[0,0.5],[1,0.5]];portConstraint=eastwest;rounded=0;shadow=0;html=0;" vertex="1" parent="wgqI6q_yxmYhnUd8IYQ2-47">
          <mxGeometry y="188" width="260" height="22" as="geometry" />
        </mxCell>
        <mxCell id="wgqI6q_yxmYhnUd8IYQ2-63" value="-IsVat: bit" style="text;align=left;verticalAlign=top;spacingLeft=4;spacingRight=4;overflow=hidden;rotatable=0;points=[[0,0.5],[1,0.5]];portConstraint=eastwest;rounded=0;shadow=0;html=0;" vertex="1" parent="wgqI6q_yxmYhnUd8IYQ2-47">
          <mxGeometry y="210" width="260" height="22" as="geometry" />
        </mxCell>
        <mxCell id="wgqI6q_yxmYhnUd8IYQ2-64" value="-Quantity: int" style="text;align=left;verticalAlign=top;spacingLeft=4;spacingRight=4;overflow=hidden;rotatable=0;points=[[0,0.5],[1,0.5]];portConstraint=eastwest;rounded=0;shadow=0;html=0;" vertex="1" parent="wgqI6q_yxmYhnUd8IYQ2-47">
          <mxGeometry y="232" width="260" height="22" as="geometry" />
        </mxCell>
        <mxCell id="wgqI6q_yxmYhnUd8IYQ2-65" value="-Warranty: int" style="text;align=left;verticalAlign=top;spacingLeft=4;spacingRight=4;overflow=hidden;rotatable=0;points=[[0,0.5],[1,0.5]];portConstraint=eastwest;rounded=0;shadow=0;html=0;" vertex="1" parent="wgqI6q_yxmYhnUd8IYQ2-47">
          <mxGeometry y="254" width="260" height="22" as="geometry" />
        </mxCell>
        <mxCell id="wgqI6q_yxmYhnUd8IYQ2-66" value="-Hot: datetime" style="text;align=left;verticalAlign=top;spacingLeft=4;spacingRight=4;overflow=hidden;rotatable=0;points=[[0,0.5],[1,0.5]];portConstraint=eastwest;rounded=0;shadow=0;html=0;" vertex="1" parent="wgqI6q_yxmYhnUd8IYQ2-47">
          <mxGeometry y="276" width="260" height="22" as="geometry" />
        </mxCell>
        <mxCell id="wgqI6q_yxmYhnUd8IYQ2-67" value="-Detail: nvarchar" style="text;align=left;verticalAlign=top;spacingLeft=4;spacingRight=4;overflow=hidden;rotatable=0;points=[[0,0.5],[1,0.5]];portConstraint=eastwest;rounded=0;shadow=0;html=0;" vertex="1" parent="wgqI6q_yxmYhnUd8IYQ2-47">
          <mxGeometry y="298" width="260" height="22" as="geometry" />
        </mxCell>
        <mxCell id="wgqI6q_yxmYhnUd8IYQ2-68" value="-Description: nvarchar" style="text;align=left;verticalAlign=top;spacingLeft=4;spacingRight=4;overflow=hidden;rotatable=0;points=[[0,0.5],[1,0.5]];portConstraint=eastwest;rounded=0;shadow=0;html=0;" vertex="1" parent="wgqI6q_yxmYhnUd8IYQ2-47">
          <mxGeometry y="320" width="260" height="22" as="geometry" />
        </mxCell>
        <mxCell id="wgqI6q_yxmYhnUd8IYQ2-69" value="-ViewCount: int" style="text;align=left;verticalAlign=top;spacingLeft=4;spacingRight=4;overflow=hidden;rotatable=0;points=[[0,0.5],[1,0.5]];portConstraint=eastwest;rounded=0;shadow=0;html=0;" vertex="1" parent="wgqI6q_yxmYhnUd8IYQ2-47">
          <mxGeometry y="342" width="260" height="22" as="geometry" />
        </mxCell>
        <mxCell id="wgqI6q_yxmYhnUd8IYQ2-70" value="-CateID: uniqueidentifier" style="text;align=left;verticalAlign=top;spacingLeft=4;spacingRight=4;overflow=hidden;rotatable=0;points=[[0,0.5],[1,0.5]];portConstraint=eastwest;rounded=0;shadow=0;html=0;fillColor=#f5f5f5;fontColor=#333333;strokeColor=#666666;" vertex="1" parent="wgqI6q_yxmYhnUd8IYQ2-47">
          <mxGeometry y="364" width="260" height="22" as="geometry" />
        </mxCell>
        <mxCell id="wgqI6q_yxmYhnUd8IYQ2-71" value="-Supplierid: uniqueidentifier" style="text;align=left;verticalAlign=top;spacingLeft=4;spacingRight=4;overflow=hidden;rotatable=0;points=[[0,0.5],[1,0.5]];portConstraint=eastwest;rounded=0;shadow=0;html=0;fillColor=#f5f5f5;fontColor=#333333;strokeColor=#666666;" vertex="1" parent="wgqI6q_yxmYhnUd8IYQ2-47">
          <mxGeometry y="386" width="260" height="22" as="geometry" />
        </mxCell>
        <mxCell id="wgqI6q_yxmYhnUd8IYQ2-72" value="-BrandID: uniqueidentifier" style="text;align=left;verticalAlign=top;spacingLeft=4;spacingRight=4;overflow=hidden;rotatable=0;points=[[0,0.5],[1,0.5]];portConstraint=eastwest;rounded=0;shadow=0;html=0;fillColor=#f5f5f5;fontColor=#333333;strokeColor=#666666;" vertex="1" parent="wgqI6q_yxmYhnUd8IYQ2-47">
          <mxGeometry y="408" width="260" height="22" as="geometry" />
        </mxCell>
        <mxCell id="wgqI6q_yxmYhnUd8IYQ2-54" value="-MetaKeyword: nvarchar" style="text;align=left;verticalAlign=top;spacingLeft=4;spacingRight=4;overflow=hidden;rotatable=0;points=[[0,0.5],[1,0.5]];portConstraint=eastwest;rounded=0;shadow=0;html=0;" vertex="1" parent="wgqI6q_yxmYhnUd8IYQ2-47">
          <mxGeometry y="430" width="260" height="22" as="geometry" />
        </mxCell>
        <mxCell id="wgqI6q_yxmYhnUd8IYQ2-55" value="-MetaDescription: nvarchar" style="text;align=left;verticalAlign=top;spacingLeft=4;spacingRight=4;overflow=hidden;rotatable=0;points=[[0,0.5],[1,0.5]];portConstraint=eastwest;rounded=0;shadow=0;html=0;" vertex="1" parent="wgqI6q_yxmYhnUd8IYQ2-47">
          <mxGeometry y="452" width="260" height="22" as="geometry" />
        </mxCell>
        <mxCell id="wgqI6q_yxmYhnUd8IYQ2-56" value="-CreateDate : datetime" style="text;align=left;verticalAlign=top;spacingLeft=4;spacingRight=4;overflow=hidden;rotatable=0;points=[[0,0.5],[1,0.5]];portConstraint=eastwest;rounded=0;shadow=0;html=0;" vertex="1" parent="wgqI6q_yxmYhnUd8IYQ2-47">
          <mxGeometry y="474" width="260" height="22" as="geometry" />
        </mxCell>
        <mxCell id="wgqI6q_yxmYhnUd8IYQ2-57" value="-UpdateDate: datetime" style="text;align=left;verticalAlign=top;spacingLeft=4;spacingRight=4;overflow=hidden;rotatable=0;points=[[0,0.5],[1,0.5]];portConstraint=eastwest;rounded=0;shadow=0;html=0;" vertex="1" parent="wgqI6q_yxmYhnUd8IYQ2-47">
          <mxGeometry y="496" width="260" height="22" as="geometry" />
        </mxCell>
        <mxCell id="wgqI6q_yxmYhnUd8IYQ2-58" value="" style="line;html=1;strokeWidth=1;align=left;verticalAlign=middle;spacingTop=-1;spacingLeft=3;spacingRight=3;rotatable=0;labelPosition=right;points=[];portConstraint=eastwest;" vertex="1" parent="wgqI6q_yxmYhnUd8IYQ2-47">
          <mxGeometry y="518" width="260" height="8" as="geometry" />
        </mxCell>
        <mxCell id="wgqI6q_yxmYhnUd8IYQ2-59" value="Purchase Parking Pass" style="text;align=left;verticalAlign=top;spacingLeft=4;spacingRight=4;overflow=hidden;rotatable=0;points=[[0,0.5],[1,0.5]];portConstraint=eastwest;" vertex="1" parent="wgqI6q_yxmYhnUd8IYQ2-47">
          <mxGeometry y="526" width="260" height="26" as="geometry" />
        </mxCell>
        <mxCell id="wgqI6q_yxmYhnUd8IYQ2-60" style="edgeStyle=orthogonalEdgeStyle;rounded=0;orthogonalLoop=1;jettySize=auto;html=1;exitX=1;exitY=0.5;exitDx=0;exitDy=0;" edge="1" parent="wgqI6q_yxmYhnUd8IYQ2-47" source="wgqI6q_yxmYhnUd8IYQ2-51" target="wgqI6q_yxmYhnUd8IYQ2-51">
          <mxGeometry relative="1" as="geometry" />
        </mxCell>
        <mxCell id="wgqI6q_yxmYhnUd8IYQ2-73" value="Post" style="swimlane;fontStyle=2;align=center;verticalAlign=top;childLayout=stackLayout;horizontal=1;startSize=26;horizontalStack=0;resizeParent=1;resizeLast=0;collapsible=1;marginBottom=0;rounded=0;shadow=0;strokeWidth=1;" vertex="1" parent="1">
          <mxGeometry x="2270" y="670" width="260" height="376" as="geometry">
            <mxRectangle x="230" y="140" width="160" height="26" as="alternateBounds" />
          </mxGeometry>
        </mxCell>
        <mxCell id="wgqI6q_yxmYhnUd8IYQ2-74" value="-PostID: uniqueidentifier" style="text;align=left;verticalAlign=top;spacingLeft=4;spacingRight=4;overflow=hidden;rotatable=0;points=[[0,0.5],[1,0.5]];portConstraint=eastwest;" vertex="1" parent="wgqI6q_yxmYhnUd8IYQ2-73">
          <mxGeometry y="26" width="260" height="26" as="geometry" />
        </mxCell>
        <mxCell id="wgqI6q_yxmYhnUd8IYQ2-75" value="-Name: nvarchar" style="text;align=left;verticalAlign=top;spacingLeft=4;spacingRight=4;overflow=hidden;rotatable=0;points=[[0,0.5],[1,0.5]];portConstraint=eastwest;rounded=0;shadow=0;html=0;" vertex="1" parent="wgqI6q_yxmYhnUd8IYQ2-73">
          <mxGeometry y="52" width="260" height="26" as="geometry" />
        </mxCell>
        <mxCell id="wgqI6q_yxmYhnUd8IYQ2-76" value="-Slug: nvarchar" style="text;align=left;verticalAlign=top;spacingLeft=4;spacingRight=4;overflow=hidden;rotatable=0;points=[[0,0.5],[1,0.5]];portConstraint=eastwest;rounded=0;shadow=0;html=0;" vertex="1" parent="wgqI6q_yxmYhnUd8IYQ2-73">
          <mxGeometry y="78" width="260" height="22" as="geometry" />
        </mxCell>
        <mxCell id="wgqI6q_yxmYhnUd8IYQ2-77" value="-Image: nvarchar" style="text;align=left;verticalAlign=top;spacingLeft=4;spacingRight=4;overflow=hidden;rotatable=0;points=[[0,0.5],[1,0.5]];portConstraint=eastwest;rounded=0;shadow=0;html=0;" vertex="1" parent="wgqI6q_yxmYhnUd8IYQ2-73">
          <mxGeometry y="100" width="260" height="22" as="geometry" />
        </mxCell>
        <mxCell id="wgqI6q_yxmYhnUd8IYQ2-86" value="-Detail: nvarchar" style="text;align=left;verticalAlign=top;spacingLeft=4;spacingRight=4;overflow=hidden;rotatable=0;points=[[0,0.5],[1,0.5]];portConstraint=eastwest;rounded=0;shadow=0;html=0;" vertex="1" parent="wgqI6q_yxmYhnUd8IYQ2-73">
          <mxGeometry y="122" width="260" height="22" as="geometry" />
        </mxCell>
        <mxCell id="wgqI6q_yxmYhnUd8IYQ2-87" value="-Description: nvarchar" style="text;align=left;verticalAlign=top;spacingLeft=4;spacingRight=4;overflow=hidden;rotatable=0;points=[[0,0.5],[1,0.5]];portConstraint=eastwest;rounded=0;shadow=0;html=0;" vertex="1" parent="wgqI6q_yxmYhnUd8IYQ2-73">
          <mxGeometry y="144" width="260" height="22" as="geometry" />
        </mxCell>
        <mxCell id="wgqI6q_yxmYhnUd8IYQ2-88" value="-ViewCount: int" style="text;align=left;verticalAlign=top;spacingLeft=4;spacingRight=4;overflow=hidden;rotatable=0;points=[[0,0.5],[1,0.5]];portConstraint=eastwest;rounded=0;shadow=0;html=0;" vertex="1" parent="wgqI6q_yxmYhnUd8IYQ2-73">
          <mxGeometry y="166" width="260" height="22" as="geometry" />
        </mxCell>
        <mxCell id="wgqI6q_yxmYhnUd8IYQ2-89" value="-PostCateID: uniqueidentifier" style="text;align=left;verticalAlign=top;spacingLeft=4;spacingRight=4;overflow=hidden;rotatable=0;points=[[0,0.5],[1,0.5]];portConstraint=eastwest;rounded=0;shadow=0;html=0;fillColor=#f5f5f5;fontColor=#333333;strokeColor=#666666;" vertex="1" parent="wgqI6q_yxmYhnUd8IYQ2-73">
          <mxGeometry y="188" width="260" height="22" as="geometry" />
        </mxCell>
        <mxCell id="wgqI6q_yxmYhnUd8IYQ2-99" value="-PostCommentID: uniqueidentifier" style="text;align=left;verticalAlign=top;spacingLeft=4;spacingRight=4;overflow=hidden;rotatable=0;points=[[0,0.5],[1,0.5]];portConstraint=eastwest;rounded=0;shadow=0;html=0;fillColor=#f5f5f5;fontColor=#333333;strokeColor=#666666;" vertex="1" parent="wgqI6q_yxmYhnUd8IYQ2-73">
          <mxGeometry y="210" width="260" height="22" as="geometry" />
        </mxCell>
        <mxCell id="wgqI6q_yxmYhnUd8IYQ2-92" value="-MetaKeyword: nvarchar" style="text;align=left;verticalAlign=top;spacingLeft=4;spacingRight=4;overflow=hidden;rotatable=0;points=[[0,0.5],[1,0.5]];portConstraint=eastwest;rounded=0;shadow=0;html=0;" vertex="1" parent="wgqI6q_yxmYhnUd8IYQ2-73">
          <mxGeometry y="232" width="260" height="22" as="geometry" />
        </mxCell>
        <mxCell id="wgqI6q_yxmYhnUd8IYQ2-93" value="-MetaDescription: nvarchar" style="text;align=left;verticalAlign=top;spacingLeft=4;spacingRight=4;overflow=hidden;rotatable=0;points=[[0,0.5],[1,0.5]];portConstraint=eastwest;rounded=0;shadow=0;html=0;" vertex="1" parent="wgqI6q_yxmYhnUd8IYQ2-73">
          <mxGeometry y="254" width="260" height="22" as="geometry" />
        </mxCell>
        <mxCell id="wgqI6q_yxmYhnUd8IYQ2-94" value="-CreateDate : date" style="text;align=left;verticalAlign=top;spacingLeft=4;spacingRight=4;overflow=hidden;rotatable=0;points=[[0,0.5],[1,0.5]];portConstraint=eastwest;rounded=0;shadow=0;html=0;" vertex="1" parent="wgqI6q_yxmYhnUd8IYQ2-73">
          <mxGeometry y="276" width="260" height="22" as="geometry" />
        </mxCell>
        <mxCell id="wgqI6q_yxmYhnUd8IYQ2-95" value="-UpdateDate: date" style="text;align=left;verticalAlign=top;spacingLeft=4;spacingRight=4;overflow=hidden;rotatable=0;points=[[0,0.5],[1,0.5]];portConstraint=eastwest;rounded=0;shadow=0;html=0;" vertex="1" parent="wgqI6q_yxmYhnUd8IYQ2-73">
          <mxGeometry y="298" width="260" height="22" as="geometry" />
        </mxCell>
        <mxCell id="wgqI6q_yxmYhnUd8IYQ2-96" value="" style="line;html=1;strokeWidth=1;align=left;verticalAlign=middle;spacingTop=-1;spacingLeft=3;spacingRight=3;rotatable=0;labelPosition=right;points=[];portConstraint=eastwest;" vertex="1" parent="wgqI6q_yxmYhnUd8IYQ2-73">
          <mxGeometry y="320" width="260" height="8" as="geometry" />
        </mxCell>
        <mxCell id="wgqI6q_yxmYhnUd8IYQ2-97" value="Purchase Parking Pass" style="text;align=left;verticalAlign=top;spacingLeft=4;spacingRight=4;overflow=hidden;rotatable=0;points=[[0,0.5],[1,0.5]];portConstraint=eastwest;" vertex="1" parent="wgqI6q_yxmYhnUd8IYQ2-73">
          <mxGeometry y="328" width="260" height="26" as="geometry" />
        </mxCell>
        <mxCell id="wgqI6q_yxmYhnUd8IYQ2-98" style="edgeStyle=orthogonalEdgeStyle;rounded=0;orthogonalLoop=1;jettySize=auto;html=1;exitX=1;exitY=0.5;exitDx=0;exitDy=0;" edge="1" parent="wgqI6q_yxmYhnUd8IYQ2-73" source="wgqI6q_yxmYhnUd8IYQ2-77" target="wgqI6q_yxmYhnUd8IYQ2-77">
          <mxGeometry relative="1" as="geometry" />
        </mxCell>
        <mxCell id="wgqI6q_yxmYhnUd8IYQ2-117" value="PostCategory" style="swimlane;fontStyle=2;align=center;verticalAlign=top;childLayout=stackLayout;horizontal=1;startSize=26;horizontalStack=0;resizeParent=1;resizeLast=0;collapsible=1;marginBottom=0;rounded=0;shadow=0;strokeWidth=1;" vertex="1" parent="1">
          <mxGeometry x="2620" y="670" width="260" height="288" as="geometry">
            <mxRectangle x="230" y="140" width="160" height="26" as="alternateBounds" />
          </mxGeometry>
        </mxCell>
        <mxCell id="wgqI6q_yxmYhnUd8IYQ2-118" value="-PostCateID: uniqueidentifier" style="text;align=left;verticalAlign=top;spacingLeft=4;spacingRight=4;overflow=hidden;rotatable=0;points=[[0,0.5],[1,0.5]];portConstraint=eastwest;fontStyle=4;fillColor=#f5f5f5;fontColor=#333333;strokeColor=#666666;" vertex="1" parent="wgqI6q_yxmYhnUd8IYQ2-117">
          <mxGeometry y="26" width="260" height="26" as="geometry" />
        </mxCell>
        <mxCell id="wgqI6q_yxmYhnUd8IYQ2-119" value="-Name: nvarchar" style="text;align=left;verticalAlign=top;spacingLeft=4;spacingRight=4;overflow=hidden;rotatable=0;points=[[0,0.5],[1,0.5]];portConstraint=eastwest;rounded=0;shadow=0;html=0;" vertex="1" parent="wgqI6q_yxmYhnUd8IYQ2-117">
          <mxGeometry y="52" width="260" height="26" as="geometry" />
        </mxCell>
        <mxCell id="wgqI6q_yxmYhnUd8IYQ2-120" value="-Slug: nvarchar" style="text;align=left;verticalAlign=top;spacingLeft=4;spacingRight=4;overflow=hidden;rotatable=0;points=[[0,0.5],[1,0.5]];portConstraint=eastwest;rounded=0;shadow=0;html=0;" vertex="1" parent="wgqI6q_yxmYhnUd8IYQ2-117">
          <mxGeometry y="78" width="260" height="22" as="geometry" />
        </mxCell>
        <mxCell id="wgqI6q_yxmYhnUd8IYQ2-121" value="-IsStatus: bit" style="text;align=left;verticalAlign=top;spacingLeft=4;spacingRight=4;overflow=hidden;rotatable=0;points=[[0,0.5],[1,0.5]];portConstraint=eastwest;rounded=0;shadow=0;html=0;" vertex="1" parent="wgqI6q_yxmYhnUd8IYQ2-117">
          <mxGeometry y="100" width="260" height="22" as="geometry" />
        </mxCell>
        <mxCell id="wgqI6q_yxmYhnUd8IYQ2-122" value="-Sort: int" style="text;align=left;verticalAlign=top;spacingLeft=4;spacingRight=4;overflow=hidden;rotatable=0;points=[[0,0.5],[1,0.5]];portConstraint=eastwest;rounded=0;shadow=0;html=0;" vertex="1" parent="wgqI6q_yxmYhnUd8IYQ2-117">
          <mxGeometry y="122" width="260" height="22" as="geometry" />
        </mxCell>
        <mxCell id="wgqI6q_yxmYhnUd8IYQ2-123" value="-ParentID: int" style="text;align=left;verticalAlign=top;spacingLeft=4;spacingRight=4;overflow=hidden;rotatable=0;points=[[0,0.5],[1,0.5]];portConstraint=eastwest;rounded=0;shadow=0;html=0;" vertex="1" parent="wgqI6q_yxmYhnUd8IYQ2-117">
          <mxGeometry y="144" width="260" height="22" as="geometry" />
        </mxCell>
        <mxCell id="wgqI6q_yxmYhnUd8IYQ2-124" value="-MetaKeyword: nvarchar" style="text;align=left;verticalAlign=top;spacingLeft=4;spacingRight=4;overflow=hidden;rotatable=0;points=[[0,0.5],[1,0.5]];portConstraint=eastwest;rounded=0;shadow=0;html=0;" vertex="1" parent="wgqI6q_yxmYhnUd8IYQ2-117">
          <mxGeometry y="166" width="260" height="22" as="geometry" />
        </mxCell>
        <mxCell id="wgqI6q_yxmYhnUd8IYQ2-125" value="-MetaDescription: nvarchar" style="text;align=left;verticalAlign=top;spacingLeft=4;spacingRight=4;overflow=hidden;rotatable=0;points=[[0,0.5],[1,0.5]];portConstraint=eastwest;rounded=0;shadow=0;html=0;" vertex="1" parent="wgqI6q_yxmYhnUd8IYQ2-117">
          <mxGeometry y="188" width="260" height="22" as="geometry" />
        </mxCell>
        <mxCell id="wgqI6q_yxmYhnUd8IYQ2-126" value="-CreateDate : datetiime" style="text;align=left;verticalAlign=top;spacingLeft=4;spacingRight=4;overflow=hidden;rotatable=0;points=[[0,0.5],[1,0.5]];portConstraint=eastwest;rounded=0;shadow=0;html=0;" vertex="1" parent="wgqI6q_yxmYhnUd8IYQ2-117">
          <mxGeometry y="210" width="260" height="22" as="geometry" />
        </mxCell>
        <mxCell id="wgqI6q_yxmYhnUd8IYQ2-127" value="-UpdateDate: datetime" style="text;align=left;verticalAlign=top;spacingLeft=4;spacingRight=4;overflow=hidden;rotatable=0;points=[[0,0.5],[1,0.5]];portConstraint=eastwest;rounded=0;shadow=0;html=0;" vertex="1" parent="wgqI6q_yxmYhnUd8IYQ2-117">
          <mxGeometry y="232" width="260" height="22" as="geometry" />
        </mxCell>
        <mxCell id="wgqI6q_yxmYhnUd8IYQ2-128" value="" style="line;html=1;strokeWidth=1;align=left;verticalAlign=middle;spacingTop=-1;spacingLeft=3;spacingRight=3;rotatable=0;labelPosition=right;points=[];portConstraint=eastwest;" vertex="1" parent="wgqI6q_yxmYhnUd8IYQ2-117">
          <mxGeometry y="254" width="260" height="8" as="geometry" />
        </mxCell>
        <mxCell id="wgqI6q_yxmYhnUd8IYQ2-129" value="Purchase Parking Pass" style="text;align=left;verticalAlign=top;spacingLeft=4;spacingRight=4;overflow=hidden;rotatable=0;points=[[0,0.5],[1,0.5]];portConstraint=eastwest;" vertex="1" parent="wgqI6q_yxmYhnUd8IYQ2-117">
          <mxGeometry y="262" width="260" height="26" as="geometry" />
        </mxCell>
        <mxCell id="wgqI6q_yxmYhnUd8IYQ2-130" style="edgeStyle=orthogonalEdgeStyle;rounded=0;orthogonalLoop=1;jettySize=auto;html=1;exitX=1;exitY=0.5;exitDx=0;exitDy=0;" edge="1" parent="wgqI6q_yxmYhnUd8IYQ2-117" source="wgqI6q_yxmYhnUd8IYQ2-121" target="wgqI6q_yxmYhnUd8IYQ2-121">
          <mxGeometry relative="1" as="geometry" />
        </mxCell>
        <mxCell id="wgqI6q_yxmYhnUd8IYQ2-182" value="" style="edgeStyle=none;curved=1;rounded=0;orthogonalLoop=1;jettySize=auto;html=1;fontSize=12;startSize=8;endSize=8;entryX=0;entryY=0.5;entryDx=0;entryDy=0;" edge="1" parent="1" target="wgqI6q_yxmYhnUd8IYQ2-99">
          <mxGeometry relative="1" as="geometry">
            <mxPoint x="2160" y="710" as="sourcePoint" />
          </mxGeometry>
        </mxCell>
        <mxCell id="wgqI6q_yxmYhnUd8IYQ2-131" value="PostComment" style="swimlane;fontStyle=2;align=center;verticalAlign=top;childLayout=stackLayout;horizontal=1;startSize=26;horizontalStack=0;resizeParent=1;resizeLast=0;collapsible=1;marginBottom=0;rounded=0;shadow=0;strokeWidth=1;" vertex="1" parent="1">
          <mxGeometry x="1900" y="670" width="260" height="266" as="geometry">
            <mxRectangle x="230" y="140" width="160" height="26" as="alternateBounds" />
          </mxGeometry>
        </mxCell>
        <mxCell id="wgqI6q_yxmYhnUd8IYQ2-132" value="-PostCommentID: uniqueidentifier" style="text;align=left;verticalAlign=top;spacingLeft=4;spacingRight=4;overflow=hidden;rotatable=0;points=[[0,0.5],[1,0.5]];portConstraint=eastwest;fontStyle=4;fillColor=#f5f5f5;fontColor=#333333;strokeColor=#666666;" vertex="1" parent="wgqI6q_yxmYhnUd8IYQ2-131">
          <mxGeometry y="26" width="260" height="26" as="geometry" />
        </mxCell>
        <mxCell id="wgqI6q_yxmYhnUd8IYQ2-133" value="-Name: nvarchar" style="text;align=left;verticalAlign=top;spacingLeft=4;spacingRight=4;overflow=hidden;rotatable=0;points=[[0,0.5],[1,0.5]];portConstraint=eastwest;rounded=0;shadow=0;html=0;" vertex="1" parent="wgqI6q_yxmYhnUd8IYQ2-131">
          <mxGeometry y="52" width="260" height="26" as="geometry" />
        </mxCell>
        <mxCell id="wgqI6q_yxmYhnUd8IYQ2-134" value="-Detail: nvarchar" style="text;align=left;verticalAlign=top;spacingLeft=4;spacingRight=4;overflow=hidden;rotatable=0;points=[[0,0.5],[1,0.5]];portConstraint=eastwest;rounded=0;shadow=0;html=0;" vertex="1" parent="wgqI6q_yxmYhnUd8IYQ2-131">
          <mxGeometry y="78" width="260" height="22" as="geometry" />
        </mxCell>
        <mxCell id="wgqI6q_yxmYhnUd8IYQ2-135" value="-PostID: uniqueidentifier" style="text;align=left;verticalAlign=top;spacingLeft=4;spacingRight=4;overflow=hidden;rotatable=0;points=[[0,0.5],[1,0.5]];portConstraint=eastwest;rounded=0;shadow=0;html=0;" vertex="1" parent="wgqI6q_yxmYhnUd8IYQ2-131">
          <mxGeometry y="100" width="260" height="22" as="geometry" />
        </mxCell>
        <mxCell id="wgqI6q_yxmYhnUd8IYQ2-136" value="-CustomerID: uniqueidentifier" style="text;align=left;verticalAlign=top;spacingLeft=4;spacingRight=4;overflow=hidden;rotatable=0;points=[[0,0.5],[1,0.5]];portConstraint=eastwest;rounded=0;shadow=0;html=0;" vertex="1" parent="wgqI6q_yxmYhnUd8IYQ2-131">
          <mxGeometry y="122" width="260" height="22" as="geometry" />
        </mxCell>
        <mxCell id="wgqI6q_yxmYhnUd8IYQ2-137" value="-CreateDate : date" style="text;align=left;verticalAlign=top;spacingLeft=4;spacingRight=4;overflow=hidden;rotatable=0;points=[[0,0.5],[1,0.5]];portConstraint=eastwest;rounded=0;shadow=0;html=0;" vertex="1" parent="wgqI6q_yxmYhnUd8IYQ2-131">
          <mxGeometry y="144" width="260" height="22" as="geometry" />
        </mxCell>
        <mxCell id="wgqI6q_yxmYhnUd8IYQ2-138" value="-UpdateDate: date" style="text;align=left;verticalAlign=top;spacingLeft=4;spacingRight=4;overflow=hidden;rotatable=0;points=[[0,0.5],[1,0.5]];portConstraint=eastwest;rounded=0;shadow=0;html=0;" vertex="1" parent="wgqI6q_yxmYhnUd8IYQ2-131">
          <mxGeometry y="166" width="260" height="22" as="geometry" />
        </mxCell>
        <mxCell id="wgqI6q_yxmYhnUd8IYQ2-139" value="" style="line;html=1;strokeWidth=1;align=left;verticalAlign=middle;spacingTop=-1;spacingLeft=3;spacingRight=3;rotatable=0;labelPosition=right;points=[];portConstraint=eastwest;" vertex="1" parent="wgqI6q_yxmYhnUd8IYQ2-131">
          <mxGeometry y="188" width="260" height="8" as="geometry" />
        </mxCell>
        <mxCell id="wgqI6q_yxmYhnUd8IYQ2-140" value="Purchase Parking Pass" style="text;align=left;verticalAlign=top;spacingLeft=4;spacingRight=4;overflow=hidden;rotatable=0;points=[[0,0.5],[1,0.5]];portConstraint=eastwest;" vertex="1" parent="wgqI6q_yxmYhnUd8IYQ2-131">
          <mxGeometry y="196" width="260" height="26" as="geometry" />
        </mxCell>
        <mxCell id="wgqI6q_yxmYhnUd8IYQ2-141" style="edgeStyle=orthogonalEdgeStyle;rounded=0;orthogonalLoop=1;jettySize=auto;html=1;exitX=1;exitY=0.5;exitDx=0;exitDy=0;" edge="1" parent="wgqI6q_yxmYhnUd8IYQ2-131" source="wgqI6q_yxmYhnUd8IYQ2-135" target="wgqI6q_yxmYhnUd8IYQ2-135">
          <mxGeometry relative="1" as="geometry" />
        </mxCell>
        <mxCell id="wgqI6q_yxmYhnUd8IYQ2-157" value="" style="endArrow=classic;html=1;rounded=0;fontSize=12;startSize=8;endSize=8;curved=1;entryX=0;entryY=0.5;entryDx=0;entryDy=0;exitX=1;exitY=0.5;exitDx=0;exitDy=0;" edge="1" parent="1" source="LCNr2324bUw4uPDGSLGZ-23" target="wgqI6q_yxmYhnUd8IYQ2-146">
          <mxGeometry width="50" height="50" relative="1" as="geometry">
            <mxPoint x="1130" y="1420" as="sourcePoint" />
            <mxPoint x="1180" y="1370" as="targetPoint" />
          </mxGeometry>
        </mxCell>
        <mxCell id="wgqI6q_yxmYhnUd8IYQ2-160" value="" style="endArrow=classic;html=1;rounded=0;fontSize=12;startSize=8;endSize=8;curved=1;exitX=0;exitY=0.5;exitDx=0;exitDy=0;" edge="1" parent="1" source="wgqI6q_yxmYhnUd8IYQ2-34" target="wgqI6q_yxmYhnUd8IYQ2-70">
          <mxGeometry width="50" height="50" relative="1" as="geometry">
            <mxPoint x="1260" y="750" as="sourcePoint" />
            <mxPoint x="1230" y="830" as="targetPoint" />
          </mxGeometry>
        </mxCell>
        <mxCell id="wgqI6q_yxmYhnUd8IYQ2-164" value="" style="edgeStyle=none;curved=1;rounded=0;orthogonalLoop=1;jettySize=auto;html=1;fontSize=12;startSize=8;endSize=8;entryX=0.08;entryY=-0.252;entryDx=0;entryDy=0;entryPerimeter=0;fillColor=#f5f5f5;strokeColor=#666666;" edge="1" parent="1" source="LCNr2324bUw4uPDGSLGZ-12" target="wgqI6q_yxmYhnUd8IYQ2-54">
          <mxGeometry relative="1" as="geometry" />
        </mxCell>
        <mxCell id="wgqI6q_yxmYhnUd8IYQ2-168" value="" style="edgeStyle=none;curved=1;rounded=0;orthogonalLoop=1;jettySize=auto;html=1;fontSize=12;startSize=8;endSize=8;" edge="1" parent="1" source="wgqI6q_yxmYhnUd8IYQ2-48" target="wgqI6q_yxmYhnUd8IYQ2-24">
          <mxGeometry relative="1" as="geometry" />
        </mxCell>
        <mxCell id="wgqI6q_yxmYhnUd8IYQ2-169" value="" style="edgeStyle=none;curved=1;rounded=0;orthogonalLoop=1;jettySize=auto;html=1;fontSize=12;startSize=8;endSize=8;" edge="1" parent="1" source="wgqI6q_yxmYhnUd8IYQ2-2" target="wgqI6q_yxmYhnUd8IYQ2-71">
          <mxGeometry relative="1" as="geometry" />
        </mxCell>
        <mxCell id="wgqI6q_yxmYhnUd8IYQ2-181" value="" style="edgeStyle=none;curved=1;rounded=0;orthogonalLoop=1;jettySize=auto;html=1;fontSize=12;startSize=8;endSize=8;entryX=1;entryY=0.5;entryDx=0;entryDy=0;exitX=0;exitY=0.5;exitDx=0;exitDy=0;" edge="1" parent="1" source="wgqI6q_yxmYhnUd8IYQ2-118" target="wgqI6q_yxmYhnUd8IYQ2-89">
          <mxGeometry relative="1" as="geometry">
            <mxPoint x="2720" y="730" as="sourcePoint" />
          </mxGeometry>
        </mxCell>
        <mxCell id="wgqI6q_yxmYhnUd8IYQ2-183" value="OrderDetail" style="swimlane;fontStyle=2;align=center;verticalAlign=top;childLayout=stackLayout;horizontal=1;startSize=26;horizontalStack=0;resizeParent=1;resizeLast=0;collapsible=1;marginBottom=0;rounded=0;shadow=0;strokeWidth=1;" vertex="1" parent="1">
          <mxGeometry x="2480" y="1400" width="260" height="310" as="geometry">
            <mxRectangle x="230" y="140" width="160" height="26" as="alternateBounds" />
          </mxGeometry>
        </mxCell>
        <mxCell id="wgqI6q_yxmYhnUd8IYQ2-184" value="-OrderDetailId: uniqueidentifier" style="text;align=left;verticalAlign=top;spacingLeft=4;spacingRight=4;overflow=hidden;rotatable=0;points=[[0,0.5],[1,0.5]];portConstraint=eastwest;" vertex="1" parent="wgqI6q_yxmYhnUd8IYQ2-183">
          <mxGeometry y="26" width="260" height="26" as="geometry" />
        </mxCell>
        <mxCell id="wgqI6q_yxmYhnUd8IYQ2-185" value="-OrderID: uniqueidentifier" style="text;align=left;verticalAlign=top;spacingLeft=4;spacingRight=4;overflow=hidden;rotatable=0;points=[[0,0.5],[1,0.5]];portConstraint=eastwest;rounded=0;shadow=0;html=0;fillColor=#f5f5f5;fontColor=#333333;strokeColor=#666666;" vertex="1" parent="wgqI6q_yxmYhnUd8IYQ2-183">
          <mxGeometry y="52" width="260" height="26" as="geometry" />
        </mxCell>
        <mxCell id="wgqI6q_yxmYhnUd8IYQ2-187" value="-ProductName: nvarchar" style="text;align=left;verticalAlign=top;spacingLeft=4;spacingRight=4;overflow=hidden;rotatable=0;points=[[0,0.5],[1,0.5]];portConstraint=eastwest;rounded=0;shadow=0;html=0;" vertex="1" parent="wgqI6q_yxmYhnUd8IYQ2-183">
          <mxGeometry y="78" width="260" height="22" as="geometry" />
        </mxCell>
        <mxCell id="wgqI6q_yxmYhnUd8IYQ2-188" value="-ProductID: uniqueidentifier&#xa;" style="text;align=left;verticalAlign=top;spacingLeft=4;spacingRight=4;overflow=hidden;rotatable=0;points=[[0,0.5],[1,0.5]];portConstraint=eastwest;rounded=0;shadow=0;html=0;" vertex="1" parent="wgqI6q_yxmYhnUd8IYQ2-183">
          <mxGeometry y="100" width="260" height="22" as="geometry" />
        </mxCell>
        <mxCell id="wgqI6q_yxmYhnUd8IYQ2-189" value="-Price: decimal" style="text;align=left;verticalAlign=top;spacingLeft=4;spacingRight=4;overflow=hidden;rotatable=0;points=[[0,0.5],[1,0.5]];portConstraint=eastwest;rounded=0;shadow=0;html=0;" vertex="1" parent="wgqI6q_yxmYhnUd8IYQ2-183">
          <mxGeometry y="122" width="260" height="22" as="geometry" />
        </mxCell>
        <mxCell id="wgqI6q_yxmYhnUd8IYQ2-190" value="-Quantity: int" style="text;align=left;verticalAlign=top;spacingLeft=4;spacingRight=4;overflow=hidden;rotatable=0;points=[[0,0.5],[1,0.5]];portConstraint=eastwest;rounded=0;shadow=0;html=0;" vertex="1" parent="wgqI6q_yxmYhnUd8IYQ2-183">
          <mxGeometry y="144" width="260" height="22" as="geometry" />
        </mxCell>
        <mxCell id="wgqI6q_yxmYhnUd8IYQ2-191" value="-TotelMoney: decimal" style="text;align=left;verticalAlign=top;spacingLeft=4;spacingRight=4;overflow=hidden;rotatable=0;points=[[0,0.5],[1,0.5]];portConstraint=eastwest;rounded=0;shadow=0;html=0;" vertex="1" parent="wgqI6q_yxmYhnUd8IYQ2-183">
          <mxGeometry y="166" width="260" height="22" as="geometry" />
        </mxCell>
        <mxCell id="wgqI6q_yxmYhnUd8IYQ2-194" value="" style="line;html=1;strokeWidth=1;align=left;verticalAlign=middle;spacingTop=-1;spacingLeft=3;spacingRight=3;rotatable=0;labelPosition=right;points=[];portConstraint=eastwest;" vertex="1" parent="wgqI6q_yxmYhnUd8IYQ2-183">
          <mxGeometry y="188" width="260" height="8" as="geometry" />
        </mxCell>
        <mxCell id="wgqI6q_yxmYhnUd8IYQ2-195" value="Purchase Parking Pass" style="text;align=left;verticalAlign=top;spacingLeft=4;spacingRight=4;overflow=hidden;rotatable=0;points=[[0,0.5],[1,0.5]];portConstraint=eastwest;" vertex="1" parent="wgqI6q_yxmYhnUd8IYQ2-183">
          <mxGeometry y="196" width="260" height="26" as="geometry" />
        </mxCell>
        <mxCell id="wgqI6q_yxmYhnUd8IYQ2-196" style="edgeStyle=orthogonalEdgeStyle;rounded=0;orthogonalLoop=1;jettySize=auto;html=1;exitX=1;exitY=0.5;exitDx=0;exitDy=0;" edge="1" parent="wgqI6q_yxmYhnUd8IYQ2-183" source="wgqI6q_yxmYhnUd8IYQ2-187" target="wgqI6q_yxmYhnUd8IYQ2-187">
          <mxGeometry relative="1" as="geometry" />
        </mxCell>
        <mxCell id="wgqI6q_yxmYhnUd8IYQ2-198" value="" style="edgeStyle=none;curved=1;rounded=0;orthogonalLoop=1;jettySize=auto;html=1;fontSize=12;startSize=8;endSize=8;exitX=1;exitY=0.5;exitDx=0;exitDy=0;" edge="1" parent="1" source="G7e7qXY8DoMNNicGVx0g-56">
          <mxGeometry relative="1" as="geometry">
            <mxPoint x="2480" y="1470" as="targetPoint" />
          </mxGeometry>
        </mxCell>
      </root>
    </mxGraphModel>
  </diagram>
</mxfile>
